<svg width="50" height="37" viewBox="0 0 50 37" fill="none" xmlns="http://www.w3.org/2000/svg">
<path d="M0.00684962 8.70721C0.00684962 9.06547 0.00684962 9.26573 0.00684962 9.46489C0.00684962 17.5891 0.00684962 25.7132 0.00684962 33.8374C0.00684962 35.5742 0.766309 36.3285 2.52395 36.3285C17.5144 36.3285 32.5048 36.3285 47.4953 36.3285C49.2163 36.3285 49.9846 35.5664 49.9846 33.8663C49.9846 25.7232 49.9846 17.5813 49.9846 9.43819V8.71945C49.6992 8.92528 49.5238 9.04767 49.3528 9.17673C41.8126 14.8499 34.2713 20.523 26.7323 26.1983C25.411 27.193 24.5871 27.1985 23.2814 26.215C16.7916 21.3307 10.3017 16.4464 3.81081 11.5632C2.58834 10.642 1.36255 9.72412 0.00684962 8.70721ZM25.0313 0.0122773C21.607 0.0122773 18.1828 0.0122773 14.7586 0.0122773C10.6493 0.0122773 6.53998 0.0122773 2.43179 0.0122773C0.749654 0.0133898 0.0179528 0.764392 0.000187695 2.46333C-0.00425359 2.89501 0.0679172 3.20988 0.453198 3.49915C8.50635 9.53943 16.5506 15.5931 24.5849 21.6578C24.9269 21.9159 25.129 21.8648 25.4365 21.63C27.5861 19.9923 29.749 18.3734 31.9086 16.7491C37.7933 12.3209 43.6802 7.8939 49.5605 3.46021C49.727 3.33449 49.9413 3.15202 49.9624 2.97512C50.1822 1.16048 49.4317 -0.00774947 47.5763 3.87022e-05C40.0617 0.0300788 32.547 0.0122773 25.0324 0.0122773H25.0313Z" fill="#CA4654"/>
<path d="M0.00653076 8.70692C1.36223 9.72384 2.58803 10.6417 3.8116 11.5618C10.3025 16.445 16.7924 21.3293 23.2822 26.2136C24.589 27.1971 25.4129 27.1905 26.7331 26.1969C34.2721 20.5227 41.8134 14.8485 49.3536 9.17533C49.5246 9.04626 49.7 8.92388 49.9854 8.71805V9.43679C49.9854 17.5799 49.9854 25.7218 49.9854 33.8649C49.9854 35.565 49.217 36.3271 47.496 36.3271C32.5056 36.3282 17.5152 36.3282 2.52474 36.3271C0.7671 36.3271 0.00764108 35.5739 0.00764108 33.836C0.00764108 25.7118 0.00764108 17.5877 0.00764108 9.46349C0.00764108 9.26433 0.00764108 9.06407 0.00764108 8.70581L0.00653076 8.70692Z" fill="#CA4654"/>
<path d="M25.7455 0.726615C27.5444 0.726869 29.3435 0.728025 31.1429 0.729181C36.6202 0.7327 42.0995 0.73622 47.5781 0.714319L47.5782 0.714318C48.3535 0.711064 48.7591 0.947384 48.9773 1.23556C49.2031 1.53374 49.3385 2.03041 49.2664 2.77898C49.2551 2.78972 49.2418 2.80179 49.2262 2.81514C49.1972 2.84001 49.1651 2.86544 49.1305 2.89176C44.2061 6.60407 39.2785 10.3117 34.3508 14.0194C33.394 14.7394 32.4371 15.4594 31.4802 16.1794L31.4802 16.1794C30.9491 16.5791 30.4174 16.9786 29.8854 17.3784C28.2573 18.6019 26.6266 19.8273 25.0048 21.063C25.0009 21.0659 24.9971 21.0688 24.9934 21.0715C16.9651 15.011 8.929 8.96273 0.881751 2.92771C0.778929 2.85048 0.756534 2.80216 0.746279 2.77579C0.729583 2.73285 0.712563 2.6535 0.714434 2.47079L25.7455 0.726615ZM25.7455 0.726615V0.727676H25.0313H25.0112H24.9911H24.9711H24.951H24.9309H24.9109H24.8908H24.8707H24.8507H24.8306H24.8106H24.7905H24.7704H24.7504H24.7303H24.7102H24.6902H24.6701H24.65H24.63H24.6099H24.5899H24.5698H24.5497H24.5297H24.5096H24.4895H24.4695H24.4494H24.4293H24.4093H24.3892H24.3691H24.3491H24.329H24.309H24.2889H24.2688H24.2488H24.2287H24.2086H24.1886H24.1685H24.1484H24.1284H24.1083H24.0883H24.0682H24.0481H24.0281H24.008H23.9879H23.9679H23.9478H23.9277H23.9077H23.8876H23.8676H23.8475H23.8274H23.8074H23.7873H23.7672H23.7472H23.7271H23.707H23.687H23.6669H23.6469H23.6268H23.6067H23.5867H23.5666H23.5465H23.5265H23.5064H23.4863H23.4663H23.4462H23.4261H23.4061H23.386H23.366H23.3459H23.3258H23.3058H23.2857H23.2656H23.2456H23.2255H23.2054H23.1854H23.1653H23.1453H23.1252H23.1051H23.0851H23.065H23.0449H23.0249H23.0048H22.9847H22.9647H22.9446H22.9246H22.9045H22.8844H22.8644H22.8443H22.8242H22.8042H22.7841H22.764H22.744H22.7239H22.7038H22.6838H22.6637H22.6437H22.6236H22.6035H22.5835H22.5634H22.5433H22.5233H22.5032H22.4831H22.4631H22.443H22.423H22.4029H22.3828H22.3628H22.3427H22.3226H22.3026H22.2825H22.2624H22.2424H22.2223H22.2023H22.1822H22.1621H22.1421H22.122H22.1019H22.0819H22.0618H22.0417H22.0217H22.0016H21.9816H21.9615H21.9414H21.9214H21.9013H21.8812H21.8612H21.8411H21.821H21.801H21.7809H21.7608H21.7408H21.7207H21.7007H21.6806H21.6605H21.6405H21.6204H21.6003H21.5803H21.5602H21.5401H21.5201H21.5H21.48H21.4599H21.4398H21.4198H21.3997H21.3796H21.3596H21.3395H21.3194H21.2994H21.2793H21.2593H21.2392H21.2191H21.1991H21.179H21.1589H21.1389H21.1188H21.0987H21.0787H21.0586H21.0386H21.0185H20.9984H20.9784H20.9583H20.9382H20.9182H20.8981H20.878H20.858H20.8379H20.8179H20.7978H20.7777H20.7577H20.7376H20.7175H20.6975H20.6774H20.6573H20.6373H20.6172H20.5971H20.5771H20.557H20.537H20.5169H20.4968H20.4768H20.4567H20.4366H20.4166H20.3965H20.3764H20.3564H20.3363H20.3163H20.2962H20.2761H20.2561H20.236H20.2159H20.1959H20.1758H20.1557H20.1357H20.1156H20.0956H20.0755H20.0554H20.0354H20.0153H19.9952H19.9752H19.9551H19.935H19.915H19.8949H19.8748H19.8548H19.8347H19.8147H19.7946H19.7745H19.7545H19.7344H19.7143H19.6943H19.6742H19.6541H19.6341H19.614H19.594H19.5739H19.5538H19.5338H19.5137H19.4936H19.4736H19.4535H19.4334H19.4134H19.3933H19.3733H19.3532H19.3331H19.3131H19.293H19.2729H19.2529H19.2328H19.2127H19.1927H19.1726H19.1525H19.1325H19.1124H19.0924H19.0723H19.0522H19.0322H19.0121H18.992H18.972H18.9519H18.9318H18.9118H18.8917H18.8717H18.8516H18.8315H18.8115H18.7914H18.7713H18.7513H18.7312H18.7111H18.6911H18.671H18.651H18.6309H18.6108H18.5908H18.5707H18.5506H18.5306H18.5105H18.4904H18.4704H18.4503H18.4303H18.4102H18.3901H18.3701H18.35H18.3299H18.3099H18.2898H18.2697H18.2497H18.2296H18.2096H18.1895H18.1694H18.1494H18.1293H18.1092H18.0892H18.0691H18.049H18.029H18.0089H17.9888H17.9688H17.9487H17.9287H17.9086H17.8885H17.8685H17.8484H17.8283H17.8083H17.7882H17.7681H17.7481H17.728H17.708H17.6879H17.6678H17.6478H17.6277H17.6076H17.5876H17.5675H17.5474H17.5274H17.5073H17.4873H17.4672H17.4471H17.4271H17.407H17.3869H17.3669H17.3468H17.3267H17.3067H17.2866H17.2666H17.2465H17.2264H17.2064H17.1863H17.1662H17.1462H17.1261H17.106H17.086H17.0659H17.0458H17.0258H17.0057H16.9857H16.9656H16.9455H16.9255H16.9054H16.8853H16.8653H16.8452H16.8251H16.8051H16.785H16.765H16.7449H16.7248H16.7048H16.6847H16.6646H16.6446H16.6245H16.6044H16.5844H16.5643H16.5443H16.5242H16.5041H16.4841H16.464H16.4439H16.4239H16.4038H16.3837H16.3637H16.3436H16.3235H16.3035H16.2834H16.2634H16.2433H16.2232H16.2032H16.1831H16.163H16.143H16.1229H16.1028H16.0828H16.0627H16.0427H16.0226H16.0025H15.9825H15.9624H15.9423H15.9223H15.9022H15.8821H15.8621H15.842H15.822H15.8019H15.7818H15.7618H15.7417H15.7216H15.7016H15.6815H15.6614H15.6414H15.6213H15.6013H15.5812H15.5611H15.5411H15.521H15.5009H15.4809H15.4608H15.4407H15.4207H15.4006H15.3805H15.3605H15.3404H15.3204H15.3003H15.2802H15.2602H15.2401H15.22H15.2H15.1799H15.1598H15.1398H15.1197H15.0997H15.0796H15.0595H15.0395H15.0194H14.9993H14.9793H14.9592H14.9391H14.9191H14.899H14.879H14.8589H14.8388H14.8188H14.7987H14.7786H14.7586H14.7345H14.7104H14.6864H14.6623H14.6382H14.6141H14.5901H14.566H14.5419H14.5179H14.4938H14.4697H14.4456H14.4216H14.3975H14.3734H14.3494H14.3253H14.3012H14.2771H14.2531H14.229H14.2049H14.1808H14.1568H14.1327H14.1086H14.0846H14.0605H14.0364H14.0123H13.9883H13.9642H13.9401H13.9161H13.892H13.8679H13.8438H13.8198H13.7957H13.7716H13.7475H13.7235H13.6994H13.6753H13.6513H13.6272H13.6031H13.579H13.555H13.5309H13.5068H13.4828H13.4587H13.4346H13.4105H13.3865H13.3624H13.3383H13.3142H13.2902H13.2661H13.242H13.2179H13.1939H13.1698H13.1457H13.1217H13.0976H13.0735H13.0494H13.0254H13.0013H12.9772H12.9531H12.9291H12.905H12.8809H12.8569H12.8328H12.8087H12.7846H12.7606H12.7365H12.7124H12.6883H12.6643H12.6402H12.6161H12.592H12.568H12.5439H12.5198H12.4958H12.4717H12.4476H12.4235H12.3995H12.3754H12.3513H12.3272H12.3032H12.2791H12.255H12.2309H12.2069H12.1828H12.1587H12.1346H12.1106H12.0865H12.0624H12.0384H12.0143H11.9902H11.9661H11.9421H11.918H11.8939H11.8698H11.8458H11.8217H11.7976H11.7735H11.7495H11.7254H11.7013H11.6772H11.6532H11.6291H11.605H11.5809H11.5569H11.5328H11.5087H11.4846H11.4606H11.4365H11.4124H11.3883H11.3643H11.3402H11.3161H11.292H11.268H11.2439H11.2198H11.1958H11.1717H11.1476H11.1235H11.0995H11.0754H11.0513H11.0272H11.0032H10.9791H10.955H10.9309H10.9069H10.8828H10.8587H10.8346H10.8106H10.7865H10.7624H10.7383H10.7143H10.6902H10.6661H10.642H10.618H10.5939H10.5698H10.5457H10.5217H10.4976H10.4735H10.4494H10.4254H10.4013H10.3772H10.3531H10.3291H10.305H10.2809H10.2568H10.2328H10.2087H10.1846H10.1605H10.1364H10.1124H10.0883H10.0642H10.0401H10.0161H9.992H9.96792H9.94385H9.91977H9.8957H9.87162H9.84754H9.82347H9.79939H9.77532H9.75124H9.72717H9.70309H9.67902H9.65494H9.63086H9.60679H9.58271H9.55864H9.53456H9.51048H9.48641H9.46233H9.43826H9.41418H9.39011H9.36603H9.34195H9.31788H9.2938H9.26973H9.24565H9.22157H9.1975H9.17342H9.14935H9.12527H9.1012H9.07712H9.05304H9.02897H9.00489H8.98081H8.95674H8.93266H8.90859H8.88451H8.86043H8.83636H8.81228H8.78821H8.76413H8.74005H8.71598H8.6919H8.66782H8.64375H8.61967H8.5956H8.57152H8.54744H8.52337H8.49929H8.47521H8.45114H8.42706H8.40299H8.37891H8.35483H8.33076H8.30668H8.2826H8.25853H8.23445H8.21037H8.1863H8.16222H8.13814H8.11407H8.08999H8.06591H8.04184H8.01776H7.99368H7.96961H7.94553H7.92145H7.89738H7.8733H7.84923H7.82515H7.80107H7.777H7.75292H7.72884H7.70476H7.68069H7.65661H7.63253H7.60846H7.58438H7.5603H7.53623H7.51215H7.48807H7.464H7.43992H7.41584H7.39177H7.36769H7.34361H7.31954H7.29546H7.27138H7.24731H7.22323H7.19915H7.17507H7.151H7.12692H7.10284H7.07877H7.05469H7.03061H7.00654H6.98246H6.95838H6.9343H6.91023H6.88615H6.86207H6.838H6.81392H6.78984H6.76577H6.74169H6.71761H6.69353H6.66946H6.64538H6.6213H6.59723H6.57315H6.54907H6.52499H6.50092H6.47684H6.45276H6.42868H6.40461H6.38053H6.35645H6.33238H6.3083H6.28422H6.26014H6.23607H6.21199H6.18791H6.16384H6.13976H6.11568H6.0916H6.06753H6.04345H6.01937H5.99529H5.97122H5.94714H5.92306H5.89898H5.87491H5.85083H5.82675H5.80267H5.7786H5.75452H5.73044H5.70636H5.68229H5.65821H5.63413H5.61005H5.58598H5.5619H5.53782H5.51374H5.48967H5.46559H5.44151H5.41743H5.39336H5.36928H5.3452H5.32112H5.29705H5.27297H5.24889H5.22481H5.20074H5.17666H5.15258H5.1285H5.10443H5.08035H5.05627H5.03219H5.00812H4.98404H4.95996H4.93588H4.91181H4.88773H4.86365H4.83957H4.81549H4.79142H4.76734H4.74326H4.71918H4.69511H4.67103H4.64695H4.62287H4.5988H4.57472H4.55064H4.52656H4.50248H4.47841H4.45433H4.43025H4.40617H4.3821H4.35802H4.33394H4.30986H4.28578H4.26171H4.23763H4.21355H4.18947H4.1654H4.14132H4.11724H4.09316H4.06909H4.04501H4.02093H3.99685H3.97277H3.9487H3.92462H3.90054H3.87646H3.85238H3.82831H3.80423H3.78015H3.75607H3.732H3.70792H3.68384H3.65976H3.63568H3.61161H3.58753H3.56345H3.53937H3.51529H3.49122H3.46714H3.44306H3.41898H3.39491H3.37083H3.34675H3.32267H3.29859H3.27452H3.25044H3.22636H3.20228H3.1782H3.15413H3.13005H3.10597H3.08189H3.05782H3.03374H3.00966H2.98558H2.9615H2.93743H2.91335H2.88927H2.86519H2.84111H2.81704H2.79296H2.76888H2.7448H2.72072H2.69665H2.67257H2.64849H2.62441H2.60033H2.57626H2.55218H2.5281H2.50402H2.47995H2.45587H2.43179C1.681 0.727676 1.30393 0.896888 1.0999 1.10334C0.892488 1.31322 0.722469 1.70409 0.714436 2.47067L25.7455 0.726615Z" fill="#CA4654" stroke="#CA4654" stroke-width="1.42857"/>
</svg>
