<svg width="1920" height="1080" viewBox="0 0 1920 1080" fill="none" xmlns="http://www.w3.org/2000/svg">
<rect width="1920" height="1080" fill="#CA4654"/>
<path d="M780.323 502.566C778.833 516.453 777.428 533.641 775.904 547.517L680.213 555.403C677.504 555.537 675.616 555.556 674.134 555.556C673.372 555.556 672.653 555.556 671.925 555.556C671.137 555.556 670.35 555.547 669.529 555.547C667.802 555.547 665.372 555.566 661.986 555.738C656.593 555.997 651.217 556.303 645.833 556.6L638.383 557.021L597.797 559.241L630.078 587.971C630.746 588.564 631.644 589.358 632.008 589.751C634.776 594.345 635.75 596.632 635.225 605.752C634.26 612.614 629.485 647.852 630.027 664.293L630.061 665.116L630.154 665.93C630.315 667.337 631.288 674.198 634.996 681.146L602.546 686.219L579.553 782.916L734.632 748.903C735.098 748.856 735.546 748.798 735.91 748.741C743.665 747.573 754.73 741.142 762.798 728.012C762.968 728.241 763.137 728.471 763.298 728.682C766.371 732.577 770.655 734.701 775.37 734.701C777.089 734.701 778.503 734.424 779.671 734.156C783.244 733.314 786.816 732.491 790.397 731.687L792.505 731.208C795.756 730.471 798.99 729.715 802.25 728.959C811.071 726.921 820.206 724.806 829.129 722.987C832.727 722.26 835.817 720.719 838.306 718.48C839.906 719.044 841.608 719.341 843.369 719.341C844.867 719.341 846.374 719.13 848.017 718.7C850.853 717.944 853.757 717.303 856.821 716.614L859.674 715.982L868.106 714.068C875.192 712.451 882.473 710.785 889.72 709.187C888.027 725.16 887.028 742.262 887.942 757.134C888.924 772.963 892.26 788.304 897.593 801.521C907.524 826.135 926.437 839.045 944.96 850.166C983.015 873.02 1025.54 884.121 1074.97 884.121C1076.72 884.121 1078.47 884.102 1080.23 884.073C1107.61 883.643 1130.75 877.604 1151 865.612C1163.49 858.214 1178.77 846.969 1186.06 825.398C1198.67 788.151 1211.56 750.301 1224.02 713.695C1231.48 691.779 1238.93 669.873 1246.38 647.947C1274.08 566.428 1298.87 493.331 1322.19 424.492C1323.3 421.219 1324.11 418.071 1325.04 414.444C1325.5 412.702 1326 410.769 1326.6 408.558L1329.45 398.04C1343.66 379.905 1345.77 356.123 1334.02 335.145C1324.81 318.694 1311.82 304.271 1294.32 291.017C1260.05 265.062 1221.41 250.554 1188.16 239.797C1184.94 238.763 1164.34 233.366 1164.34 233.366L1160.28 249.434L1160.24 249.587C1159.81 249.52 1159.38 249.434 1158.94 249.386C1153.01 248.774 1146.92 247.97 1141.01 247.195C1137.54 246.745 1134.06 246.305 1130.58 245.864C1125.95 245.3 1121.33 244.764 1116.72 244.218C1109.1 243.328 1101.2 242.4 1093.5 241.395C1092.63 241.28 1091.76 241.213 1090.93 241.213C1087 241.213 1077.39 242.658 1073.2 256.018C1071.2 262.411 1069.11 268.919 1067.09 275.216C1064.69 282.719 1062.21 290.423 1059.8 298.185C1056.86 297.869 1053.64 297.572 1050.18 297.572C1048.92 297.572 1047.66 297.61 1046.44 297.697L1027.81 298.902C1027.81 298.902 1027.77 298.874 1027.74 298.864C1023.32 296.845 1019.18 295.601 1015.08 295.084C1004.95 293.811 994.825 293.16 985.013 292.519C980.763 292.242 976.361 291.954 972.077 291.629C950.497 289.964 928.579 288.404 907.363 286.882L895.502 286.031C888.492 285.533 881.483 285.073 874.481 284.614C871.417 284.404 868.352 284.212 865.304 284.011L824.684 281.322L824.735 281.389C814.932 280.547 805.103 279.858 795.502 279.207L813.628 209.708C813.628 209.708 750.37 201.899 736.444 200.1C735.081 199.918 710.817 196.252 710.817 196.252L706.043 214.675C701.386 233.423 696.595 252.745 691.837 271.742L625.675 266.613L670.638 302.07C672.06 303.18 672.805 303.822 673.195 304.166C680.458 311.526 678.935 323.393 676.843 332.513C673.593 346.715 670.147 361.176 666.82 375.139C664.424 385.197 661.96 395.59 659.564 405.85C657.169 416.099 654.815 426.359 652.462 436.627C649.312 450.313 646.07 464.467 642.776 478.334C640.787 486.785 643.09 492.604 645.384 495.982C647.221 498.7 651.454 503.265 659.048 503.265C659.548 503.265 660.089 503.246 660.674 503.207C665.406 502.92 670.138 502.681 674.871 502.432L677.462 502.308C681.652 502.088 685.851 501.858 690.042 501.628C701.632 500.997 713.62 500.346 725.336 500.011C728.689 499.906 733.515 499.035 737.722 495.484C740.093 497.322 743.411 498.834 747.873 498.834C748.499 498.834 749.126 498.805 749.795 498.748C753.596 498.422 757.414 498.231 761.469 498.039C762.697 497.982 763.924 497.925 765.143 497.858C768.919 497.666 772.704 497.465 776.488 497.274C776.903 497.255 777.326 497.226 777.741 497.207L781.153 496.977L780.365 502.576L780.323 502.566Z" fill="#CA4654"/>
<path d="M1074.96 887.462C1025.03 887.462 982.05 876.226 943.563 853.114C924.6 841.735 905.213 828.481 894.893 802.909C889.415 789.329 885.986 773.576 884.979 757.364C884.225 745.143 884.674 730.357 886.308 713.351C880.39 714.672 874.481 716.021 868.724 717.342L856.88 720.012C854.019 720.653 851.31 721.266 848.685 721.964C845.13 722.893 841.997 722.921 838.907 722.136C836.257 724.185 833.142 725.582 829.637 726.29C820.612 728.127 811.164 730.319 802.825 732.243L800.057 732.884C797.729 733.42 795.409 733.956 793.072 734.492L790.964 734.97C787.392 735.774 783.828 736.597 780.263 737.439C778.934 737.745 777.317 738.061 775.362 738.061C770.765 738.061 766.498 736.329 763.111 733.142C754.527 745.354 743.826 750.943 736.291 752.072C735.953 752.13 735.512 752.187 735.055 752.235L575.455 787.224L600.193 683.205L630.408 678.477C628.012 672.553 627.343 667.491 627.216 666.352L627.097 665.261L627.064 664.438C626.513 647.699 631.254 612.663 632.27 605.38C632.727 597.188 631.915 595.57 629.756 591.972C629.527 591.752 629.087 591.35 628.249 590.603L589.729 556.323L645.807 553.251C651.158 552.954 656.5 552.658 661.85 552.399C665.253 552.227 667.734 552.208 669.52 552.208C670.257 552.208 670.951 552.208 671.654 552.217H671.942C674.16 552.236 676.293 552.265 680.035 552.083L773.254 544.398C773.939 537.91 774.608 530.761 775.26 523.822C775.946 516.482 776.657 508.883 777.377 502.184L777.394 502.06L777.605 500.576L765.228 501.218C764.009 501.285 762.773 501.342 761.545 501.399C757.753 501.581 753.816 501.763 749.972 502.098C749.219 502.165 748.516 502.194 747.822 502.194C744.105 502.194 740.727 501.275 737.756 499.466C733.379 502.471 728.697 503.256 725.37 503.361C713.679 503.696 701.708 504.347 690.135 504.979C685.944 505.218 681.745 505.438 677.546 505.658L672.898 505.897C668.852 506.108 664.813 506.319 660.767 506.567C660.132 506.606 659.53 506.625 658.989 506.625C650.108 506.625 645.147 501.237 642.971 498.031C640.279 494.059 637.544 487.274 639.856 477.483C642.768 465.214 645.663 452.649 648.457 440.495L649.541 435.796C651.928 425.402 654.265 415.22 656.652 405.008C658.904 395.361 661.181 385.753 663.916 374.288L664.559 371.589C667.675 358.507 670.892 344.974 673.931 331.7C675.844 323.336 677.267 312.943 671.239 306.751C670.875 306.426 670.181 305.851 668.902 304.846L615.169 262.47L689.602 268.24C693.902 251.052 698.228 233.634 702.444 216.638L703.147 213.795L708.65 192.578L711.173 192.961C719.554 194.224 735.69 196.655 736.748 196.799C750.506 198.569 813.289 206.321 813.916 206.398L817.437 206.828L799.363 276.136C806.889 276.653 814.771 277.217 822.661 277.878L824.828 278.002L865.448 280.691C866.946 280.787 868.436 280.892 869.935 280.988C871.501 281.093 873.067 281.189 874.634 281.294C881.355 281.734 888.552 282.203 895.663 282.711L911.672 283.859C931.533 285.285 952.08 286.749 972.263 288.309C976.496 288.634 980.847 288.922 985.055 289.19L985.529 289.218C995.248 289.85 1005.31 290.51 1015.39 291.774C1019.58 292.3 1023.81 293.534 1028.31 295.535L1046.26 294.367C1047.56 294.281 1048.88 294.243 1050.18 294.243C1052.84 294.243 1055.37 294.415 1057.76 294.635C1059.83 288.022 1061.93 281.457 1063.97 275.073L1064.29 274.088C1066.16 268.279 1068.32 261.532 1070.39 254.919C1075.35 239.109 1087.35 237.874 1090.91 237.874C1091.83 237.874 1092.81 237.941 1093.83 238.075C1101.34 239.061 1109.05 239.96 1116.51 240.841L1120.73 241.338C1124.11 241.74 1127.49 242.133 1130.87 242.544C1134.37 242.975 1137.85 243.425 1141.32 243.875L1141.7 243.922C1147.09 244.631 1152.66 245.358 1158.07 245.932L1162.25 229.395L1164.99 230.113C1165.84 230.333 1185.71 235.539 1188.96 236.592C1222.44 247.425 1261.34 262.039 1295.96 288.252C1313.82 301.784 1327.09 316.541 1336.51 333.366C1348.63 354.994 1346.92 380.355 1332.08 399.726L1329.42 409.554C1328.82 411.755 1328.32 413.669 1327.87 415.402C1326.91 419.134 1326.1 422.321 1324.94 425.718C1301.14 496.002 1276.34 569.09 1249.13 649.173C1241.68 671.099 1234.22 693.005 1226.77 714.921L1221.22 731.209C1210.57 762.504 1199.56 794.87 1188.81 826.615C1181.17 849.229 1165.31 860.933 1152.36 868.599C1131.69 880.849 1108.11 887.012 1080.26 887.443C1078.5 887.481 1076.72 887.491 1074.96 887.491V887.462ZM893.14 705.015L892.658 709.58C890.693 728.089 890.101 744.014 890.897 756.896C891.853 772.323 895.096 787.271 900.285 800.124C909.835 823.791 928.274 836.357 946.34 847.2C983.946 869.786 1026.02 880.763 1074.96 880.763C1076.69 880.763 1078.43 880.753 1080.17 880.715C1107.07 880.294 1129.78 874.379 1149.61 862.637C1161.64 855.517 1176.34 844.712 1183.28 824.193C1194.02 792.439 1205.03 760.073 1215.69 728.769L1221.24 712.48C1228.71 690.564 1236.16 668.658 1243.61 646.733C1270.81 566.659 1295.6 493.571 1319.41 423.278C1320.48 420.148 1321.26 417.086 1322.17 413.545C1322.64 411.727 1323.15 409.784 1323.75 407.564L1326.79 396.357L1327.22 395.811C1340.83 378.441 1342.43 356.43 1331.51 336.926C1322.53 320.896 1309.83 306.789 1292.67 293.793C1258.73 268.097 1220.37 253.703 1187.33 243.013C1184.92 242.238 1172.1 238.841 1166.4 237.338L1163.03 250.631L1162.26 253.282L1159.39 252.813C1159.14 252.765 1158.89 252.727 1158.63 252.698C1152.82 252.095 1146.81 251.311 1141.01 250.555L1140.64 250.507C1137.18 250.057 1133.71 249.617 1130.23 249.176C1126.86 248.765 1123.49 248.373 1120.11 247.971L1115.89 247.473C1108.41 246.593 1100.68 245.693 1093.14 244.698C1092.34 244.592 1091.59 244.545 1090.9 244.545C1086.8 244.545 1079.4 246.181 1075.97 257.12C1073.89 263.761 1071.72 270.518 1069.85 276.337L1069.54 277.322C1067.24 284.471 1064.87 291.869 1062.58 299.277L1061.81 301.746L1059.5 301.497C1056.59 301.191 1053.45 300.903 1050.16 300.903C1048.97 300.903 1047.77 300.942 1046.59 301.018L1027.48 302.253L1026.56 301.975L1026.36 301.832C1022.27 299.985 1018.46 298.855 1014.72 298.387C1004.79 297.142 994.816 296.492 985.173 295.86L984.699 295.831C980.475 295.554 976.106 295.276 971.848 294.941C951.682 293.391 931.144 291.917 911.291 290.491L895.29 289.343C888.196 288.835 881.008 288.367 874.286 287.926C872.712 287.821 871.154 287.716 869.588 287.62C868.089 287.524 866.591 287.429 865.092 287.323L831.584 285.103L831.703 285.256L824.473 284.692C814.568 283.84 804.595 283.141 795.282 282.519L791.566 282.27L809.742 212.57C796.23 210.905 747.94 204.933 736.063 203.402C734.937 203.259 719.173 200.876 712.9 199.928L708.142 218.399C703.706 236.257 699.16 254.593 694.639 272.624L693.987 275.236L636.088 270.748L672.28 299.296C673.474 300.234 674.388 300.98 674.981 301.506L675.125 301.64C683.701 310.33 681.83 323.882 679.671 333.318C676.632 346.63 673.406 360.172 670.282 373.273L669.639 375.972C666.913 387.428 664.635 397.027 662.384 406.664C659.996 416.866 657.66 427.039 655.281 437.432L654.197 442.131C651.403 454.295 648.508 466.87 645.587 479.158C643.902 486.307 645.799 491.121 647.687 493.896C649.194 496.126 652.665 499.868 658.997 499.868C659.446 499.868 659.937 499.849 660.453 499.82C664.508 499.581 668.564 499.361 672.627 499.15L677.284 498.911C681.466 498.691 685.656 498.461 689.847 498.232C701.462 497.6 713.467 496.949 725.218 496.614C728.113 496.519 732.329 495.782 735.902 492.758L737.604 491.322L739.356 492.681C741.726 494.518 744.579 495.447 747.83 495.447C748.381 495.447 748.931 495.418 749.532 495.37C753.469 495.035 757.456 494.844 761.3 494.662C762.519 494.605 763.746 494.547 764.965 494.49L777.563 493.839L784.615 493.37L783.26 503.017C782.549 509.659 781.847 517.2 781.161 524.492C780.416 532.455 779.645 540.685 778.85 547.92L778.553 550.648L680.348 558.735C676.437 558.926 674.202 558.897 671.908 558.878H671.628C670.943 558.878 670.257 558.869 669.537 558.869C667.819 558.869 665.423 558.888 662.13 559.06C656.779 559.318 651.454 559.615 646.112 559.912L605.873 562.122L631.931 585.311C633.066 586.316 633.701 586.909 634.065 587.292L634.293 587.541L634.471 587.838C637.561 592.967 638.763 596.049 638.196 605.944L638.162 606.251C637.578 610.433 632.456 647.584 632.998 664.151L633.024 664.811L633.1 665.49C633.184 666.227 633.997 672.764 637.544 679.405L639.873 683.76L604.908 689.224L583.65 778.591L734.217 745.574L734.361 745.555C734.776 745.507 735.182 745.459 735.504 745.411C742.116 744.416 752.58 738.77 760.368 726.089L762.612 722.443L765.101 725.878C765.253 726.079 765.397 726.271 765.541 726.462C768.022 729.601 771.518 731.343 775.379 731.343C776.809 731.343 778.003 731.113 779.087 730.865C782.659 730.022 786.232 729.199 789.822 728.386L791.93 727.907C794.249 727.381 796.569 726.845 798.889 726.309L801.657 725.668C810.021 723.735 819.512 721.543 828.604 719.687C831.694 719.055 834.336 717.772 836.46 715.849L837.688 714.748L839.187 715.275C840.533 715.744 841.938 715.983 843.377 715.983C844.63 715.983 845.934 715.801 847.365 715.428C850.082 714.71 852.834 714.088 855.746 713.437L867.531 710.777C874.625 709.159 881.914 707.484 889.161 705.896L893.157 705.015H893.14Z" fill="black"/>
<path d="M1119.5 533.899C1115.93 536.808 1113.42 541.239 1112.47 546.656C1108.4 569.998 1104.37 592.746 1100.95 611.915C1099.84 618.155 1101.06 622.806 1102.71 626.003C1101.49 626.29 1100.27 626.539 1099.06 626.807C1096.41 627.362 1093.9 628.022 1091.48 628.654C1086.77 629.888 1082.31 631.065 1078.43 631.065V648.234L1078.4 631.065C1076.59 631.065 1075.63 630.721 1075.26 630.549C1075.17 630.089 1075.02 628.931 1075.34 626.845C1077.42 612.853 1079.68 598.603 1081.86 584.822C1082.92 578.152 1083.97 571.491 1085.02 564.82C1085.89 559.231 1086.07 552.015 1083.91 544.13C1087.57 540.885 1090.02 536.091 1090.98 530.014C1092.23 522.061 1093.67 513.926 1095.05 506.05C1095.38 504.164 1095.71 502.279 1096.04 500.384C1099.07 500.212 1102.08 500.04 1105.03 499.886C1108.6 499.686 1112.16 499.485 1115.74 499.293C1117.56 499.197 1119.38 499.121 1121.19 499.044C1120 505.475 1118.79 512.089 1117.55 518.548C1116.19 525.506 1117.66 530.559 1119.51 533.909L1119.5 533.899Z" fill="url(#paint0_linear_1_220)"/>
<path d="M1075.99 805.109C1084.05 805.109 1092.16 804.612 1100.28 803.635C1099.88 803.817 1099.48 803.999 1099.07 804.162C1087.98 808.889 1076.27 811.282 1064.27 811.282C1054.75 811.282 1044.76 809.779 1034.52 806.822C1033.51 806.526 1032.95 806.286 1032.68 806.152C1030.19 803.655 1027.74 801.195 1025.33 798.764C1042.27 803.023 1059.1 805.109 1075.98 805.109H1075.99Z" fill="url(#paint1_linear_1_220)"/>
<path d="M734.64 214.962C754.053 217.479 773.499 219.776 792.937 222.168C793.276 222.207 793.606 222.398 794.071 222.561C788.306 245.28 782.558 267.943 776.801 290.605C775.641 295.113 775.641 295.007 779.933 295.314C796.476 296.472 813.018 297.457 829.51 298.989C847.145 300.625 858.277 318.464 853.689 338.494C849.21 358.018 843.707 377.273 838.687 396.643C831.973 422.53 825.243 448.408 818.673 474.334C817.895 477.406 816.76 478.162 814.026 478.267C797.483 478.899 780.949 479.837 764.407 480.679C759.141 480.947 753.858 481.138 748.601 481.598C745.731 481.837 745.121 480.88 745.909 477.751C751.471 455.586 756.864 433.364 762.4 411.19C768.648 386.144 774.938 361.109 781.322 336.102C782.151 332.848 781.135 332.168 778.545 331.68C774.786 330.982 771.179 329.709 768.293 331.891C765.38 334.082 764.618 339.547 763.594 343.681C752.521 388.298 741.498 432.962 730.577 477.636C729.688 481.282 728.579 482.689 724.905 482.794C708.845 483.253 692.793 484.277 676.725 485.11C671.095 485.397 665.457 485.684 659.827 486.01C657.668 486.134 656.601 486.01 657.38 482.746C663.086 458.601 668.53 434.369 674.177 410.204C679.891 385.714 685.868 361.31 691.472 336.781C694.749 322.455 693.877 308.348 686.418 295.83C684.7 292.921 683.582 291.342 679.265 287.935C683.802 288.289 687.392 288.567 690.99 288.854C694.944 289.15 698.169 288.758 701.166 286.653C704.028 284.652 705.221 281.064 706.246 276.939C711.308 256.726 716.329 236.505 721.349 216.273C721.594 215.249 722.018 214.225 721.662 213.115C721.662 213.115 731.279 214.493 734.649 214.943L734.64 214.962Z" fill="white"/>
<path d="M864.381 301.142C874.43 301.812 884.47 302.434 894.511 303.161C920.019 304.989 945.527 306.798 971.026 308.75C985.148 309.841 999.294 310.368 1013.38 312.148C1016.38 312.521 1019.24 313.497 1022.03 314.779C1035.4 320.923 1041.07 333.393 1036.59 348.926C1028.43 377.273 1020.39 405.696 1011.1 433.584C1004.14 454.543 988.619 465.204 969.926 469.415C957.929 472.133 945.544 471.185 933.336 471.941C916.455 473.004 899.557 473.741 882.667 474.592C878.121 474.822 873.566 475.157 869.054 474.018C855.585 470.64 848.177 458.763 849.76 443.173C850.903 431.89 854.619 421.382 857.379 410.596C862.941 388.862 868.995 367.291 874.591 345.567C877.867 332.848 875.869 320.665 870.4 309.123C868.961 306.109 866.785 303.783 864.372 301.123M924.574 439.106C928.045 439.183 931.533 439.106 934.987 439.393C937.12 439.575 937.95 438.513 938.483 436.398C939.651 431.852 940.955 427.344 942.242 422.846C949.717 396.547 957.176 370.277 964.719 344.016C965.506 341.298 965.363 340.179 962.493 340.255C959.149 340.351 955.779 340.035 952.444 339.672C950.657 339.49 949.802 340.236 949.294 342.064C940.473 373.684 931.643 405.314 922.736 436.895C922.059 439.288 922.931 439.116 924.582 439.096" fill="white"/>
<path d="M1198.56 420.205C1195.84 431.804 1190.09 441.441 1180.88 448.351C1169.95 456.553 1158.07 461.07 1144.82 461.548C1124.69 462.275 1104.59 463.845 1084.45 464.601C1074.29 464.974 1064.09 466.965 1053.93 465.185C1037.28 462.256 1029.98 448.801 1035.32 430.512C1042.8 404.912 1050.63 379.445 1058.29 353.922C1061.87 342.045 1059.54 331.202 1053.69 321.01C1052.23 318.454 1049.98 316.894 1047.29 314.827C1053.81 314.397 1059.67 315.583 1065.56 315.985C1069.17 316.244 1070.66 315.095 1071.86 311.124C1076.85 294.577 1082.31 278.231 1087.47 261.751C1088.27 259.205 1089.17 258.095 1091.75 258.43C1104.15 260.047 1116.54 261.416 1128.93 262.928C1138.48 264.096 1147.98 265.474 1157.54 266.469C1160.33 266.756 1160.62 267.531 1159.67 270.364C1154.37 286.05 1149.29 301.84 1143.94 317.526C1142.81 320.866 1143.37 321.861 1146.44 321.833C1149.55 321.794 1152.66 322.148 1155.79 322.311C1157.57 322.388 1158.05 323.105 1157.36 325.144C1154.87 332.475 1152.45 339.853 1150.14 347.251C1149.52 349.213 1148.52 349.625 1146.88 349.471C1143.54 349.156 1140.17 349.108 1136.83 348.715C1134.71 348.467 1133.61 349.175 1132.85 351.567C1124.3 378.335 1115.66 405.055 1107.01 431.766C1106.21 434.263 1106.31 435.45 1109.11 435.163C1112.56 434.79 1116.06 434.646 1119.53 434.761C1121.43 434.819 1122.03 433.728 1122.53 432.11C1123.41 429.153 1124.39 426.234 1125.21 423.267C1125.78 421.181 1126.75 420.301 1128.81 420.281C1144.64 420.157 1160.48 419.822 1176.33 419.717C1183.73 419.669 1191.13 420.033 1198.57 420.195" fill="white"/>
<path d="M1140.34 776.915C1132.94 798.965 1121.52 812.976 1104.41 820.24C1080.28 830.509 1055.59 830.643 1030.8 823.465C1028.07 822.68 1025.11 821.474 1023.06 819.426C1000.45 796.793 978.011 773.949 955.593 750.281C1013.47 785.557 1073.85 799.654 1140.34 776.915Z" fill="black"/>
<path d="M805.881 498.173C821.12 497.503 836.359 496.671 851.598 495.896C851.868 495.877 852.148 495.991 852.52 496.058C850.455 514.347 848.389 532.607 846.323 550.857C845.917 554.513 845.9 554.418 849.244 554.073C862.112 552.743 874.972 551.278 887.866 550.245C901.648 549.125 912.104 561.404 910.656 577.463C909.251 593.129 907.024 608.709 905.179 624.328C902.715 645.201 900.235 666.064 897.881 686.955C897.602 689.415 896.814 690.161 894.715 690.611C882.007 693.32 869.351 696.277 856.686 699.138C852.647 700.057 848.601 700.918 844.588 701.971C842.404 702.536 841.828 701.885 842.107 699.368C844.071 681.52 845.917 663.652 847.856 645.803C850.048 625.649 852.275 605.494 854.578 585.348C854.882 582.736 854.527 582.075 851.97 582.315C849.007 582.573 845.892 582.19 843.894 584.257C841.879 586.334 842.056 590.248 841.701 593.569C837.84 629.486 834.005 665.403 830.28 701.339C829.967 704.278 829.264 705.512 826.437 706.086C814.093 708.603 801.809 711.56 789.517 714.355C785.208 715.341 780.89 716.307 776.581 717.331C774.93 717.724 774.083 717.752 774.346 715.14C776.234 695.75 777.885 676.323 779.696 656.924C781.542 637.267 783.591 617.638 785.351 597.972C786.376 586.468 783.15 576.238 777.165 567.05C775.734 564.859 774.498 563.978 770.815 561.94C774.354 561.605 777.156 561.327 779.959 561.059C783.023 560.763 786.85 561.509 788.933 559.499C790.922 557.566 790.118 553.154 790.482 549.814C792.277 533.545 794.021 517.266 795.765 500.997C795.849 500.174 796.069 499.322 795.68 498.518C795.68 498.518 803.249 498.288 805.898 498.173H805.881Z" fill="black"/>
<path d="M918.631 546.656C926.445 545.814 934.25 544.943 942.081 544.158C961.942 542.129 981.803 540.091 1001.68 538.186C1012.69 537.124 1023.67 535.631 1034.72 535.105C1037.06 534.98 1039.37 535.354 1041.65 535.966C1052.61 538.904 1058.28 547.766 1056.46 560.361C1053.14 583.32 1049.91 606.326 1045.69 629.084C1042.5 646.186 1031.66 656.484 1017.67 662.274C1008.7 665.968 999.057 666.915 989.719 669.145C976.809 672.217 963.847 675.079 950.903 678.007C947.423 678.792 943.944 679.653 940.337 679.385C929.602 678.591 922.626 670.428 922.229 658.187C921.941 649.335 923.693 640.731 924.684 632.041C926.707 614.528 929.111 597.081 931.152 579.568C932.337 569.309 929.535 560.179 924.1 552.025C922.669 549.881 920.755 548.379 918.622 546.666M979.518 644.961C982.201 644.569 984.885 644.043 987.577 643.794C989.245 643.641 989.778 642.712 989.973 641.009C990.388 637.343 990.93 633.688 991.446 630.041C994.46 608.776 997.449 587.483 1000.52 566.218C1000.84 564.026 1000.61 563.174 998.414 563.614C995.84 564.141 993.207 564.342 990.6 564.524C989.194 564.619 988.619 565.308 988.415 566.782C984.919 592.363 981.431 617.945 977.867 643.516C977.596 645.44 978.189 645.105 979.518 644.952" fill="black"/>
<path d="M1185.21 594.086C1184.33 603.398 1180.91 611.6 1174.53 618.174C1166.96 625.984 1158.27 631.056 1148.1 633.209C1132.65 636.473 1117.3 640.396 1101.85 643.689C1094.05 645.344 1086.4 648.244 1078.37 648.244C1065.23 648.215 1058.18 638.827 1060.38 624.003C1063.47 603.245 1066.84 582.554 1070.09 561.834C1071.59 552.197 1068.66 544.139 1063.09 537.076C1061.68 535.296 1059.78 534.387 1057.49 533.172C1062.48 531.966 1067.13 532.081 1071.7 531.612C1074.52 531.315 1075.54 530.224 1076.06 527.008C1078.17 513.572 1080.67 500.241 1082.91 486.823C1083.27 484.737 1083.85 483.78 1085.88 483.694C1095.59 483.273 1105.3 482.66 1115.03 482.153C1122.5 481.77 1129.98 481.56 1137.46 481.043C1139.64 480.89 1139.96 481.435 1139.51 483.751C1137.06 496.556 1134.81 509.428 1132.33 522.233C1131.79 524.96 1132.33 525.669 1134.7 525.228C1137.09 524.769 1139.53 524.635 1141.95 524.329C1143.33 524.157 1143.78 524.645 1143.47 526.31C1142.31 532.301 1141.23 538.311 1140.21 544.35C1139.96 545.938 1139.21 546.388 1137.93 546.493C1135.31 546.704 1132.7 547.115 1130.09 547.259C1128.43 547.345 1127.66 548.044 1127.32 549.977C1123.53 571.787 1119.67 593.55 1115.8 615.332C1115.45 617.361 1115.65 618.26 1117.78 617.667C1120.41 616.921 1123.08 616.337 1125.78 615.964C1127.26 615.753 1127.6 614.844 1127.81 613.504C1128.19 611.112 1128.64 608.738 1128.95 606.326C1129.18 604.642 1129.84 603.829 1131.42 603.541C1143.63 601.321 1155.8 598.919 1168.02 596.718C1173.73 595.684 1179.47 594.967 1185.22 594.096" fill="black"/>
<path d="M759.191 617.361C759.191 617.361 769.469 579.951 750.116 569.864C750.116 569.864 746.611 568.189 735.419 568.802L680.991 572.563C672.957 572.955 670.68 572.486 662.637 572.879C654.798 573.261 646.958 573.721 639.119 574.151C641.168 575.989 643.038 577.577 644.368 579.788C649.464 588.229 651.132 594.325 650.302 607.676C650.302 607.676 644.647 647.612 645.172 663.642C645.172 663.642 645.773 668.782 648.584 673.318C649.092 674.237 649.684 675.041 650.345 675.701C652.106 677.691 654.425 679.309 657.498 679.921C659.649 680.553 662.121 680.802 665.016 680.496L712.798 675.787L711.977 686.439L614.567 701.665L600.497 760.818L732.693 731.83L733.006 731.811C733.065 731.811 733.387 731.792 733.912 731.696C738.441 731.017 753.087 723.389 757.066 699.32L761.511 655.335L761.536 655.115C762.129 650.455 762.976 639.707 757.168 633.075C754.383 629.869 750.192 628.74 744.384 629.62C744.19 629.639 744.003 629.678 743.8 629.716L696.399 632.597L697.043 622.51L759.183 617.361H759.191Z" fill="black"/>
<path d="M1272.32 433.048C1256.64 479.186 1240.52 524.434 1224.53 570.419C1207.38 619.734 1190.36 669.116 1172.68 718.183C1170.26 724.873 1165.25 731.553 1159.87 735.409C1151.99 741.065 1143 745.506 1133.95 748.157C1068.07 767.527 1005.74 757.899 947.931 716.489C928.849 702.813 914.186 684.821 913.255 657.192C913.255 657.192 900.598 716.173 903.053 755.918C903.841 768.838 906.584 782.543 911.35 794.362C919.35 814.182 935.698 825.168 952.037 834.978C992.031 858.98 1035.22 867.584 1080 866.875C1102.21 866.521 1123.89 862.263 1143.97 850.367C1156.13 843.16 1166.72 834.538 1171.89 819.225C1191.91 760.034 1212.12 700.918 1232.23 641.755C1257.51 567.289 1282.79 493.503 1308.02 419.009C1309.39 414.989 1308.72 416.731 1311.01 410.434C1303.77 413.573 1298.13 414.836 1293.03 416.97C1283.4 420.99 1276.55 420.645 1272.32 433.029V433.048ZM1091 837.571C1041.59 848.328 994.79 837.638 951.538 808.966C942.251 802.803 933.836 793.711 927.198 784.055C922.186 776.762 918.825 766.608 917.979 757.354C916.514 741.247 917.572 724.853 917.572 708.584L917.589 704.88L919.621 707.129C989.516 779.069 1069.5 791.577 1157.29 758.617C1147.36 801.071 1135.58 827.867 1090.99 837.581L1091 837.571Z" fill="black"/>
<path d="M1321.22 344.342C1312.26 328.331 1299.84 315.861 1285.89 305.305C1254.65 281.647 1219.74 267.876 1183.99 256.305C1181 255.348 1177.81 255.166 1174.71 254.64C1174.46 255.511 1174.22 256.391 1173.96 257.262C1176.97 259.263 1179.82 261.684 1183 263.196C1197.55 270.106 1212.2 276.738 1226.81 283.523C1248.02 293.4 1268.58 304.061 1284.98 323.431C1304.07 345.988 1302.87 369.55 1279.53 383.436C1278.81 383.876 1278.13 384.326 1277.35 384.747C1277.22 384.805 1277.1 384.872 1276.99 384.929C1257.97 395.743 1236.41 402.519 1216.04 406.74L1213.24 407.725C1215.8 426.014 1203.48 439.977 1203.48 439.977L1216.04 435.412C1249.73 425.899 1276.55 413.707 1289.4 407.352C1289.97 407.065 1290.56 406.778 1291.08 406.51C1292.11 406.012 1293.11 405.486 1294.12 404.959C1295.6 404.203 1296.62 403.648 1297.19 403.342C1297.36 403.246 1297.52 403.122 1297.71 403.026C1301.91 400.615 1306.03 397.897 1310 394.738C1326.37 381.752 1331.24 362.228 1321.22 344.323V344.342Z" fill="black"/>
<path d="M592.671 845.725L584.746 847.397C584.481 847.452 584.226 847.286 584.212 846.957L583.303 818.838C583.311 818.615 583.184 818.532 582.972 818.576L574.465 820.37C574.148 820.437 573.892 820.27 573.878 819.942L573.687 812.753C573.673 812.425 573.839 812.169 574.156 812.102L600.787 806.486C601.104 806.419 601.36 806.586 601.374 806.914L601.618 814.092C601.632 814.42 601.413 814.687 601.096 814.754L592.536 816.559C592.324 816.604 592.241 816.732 592.233 816.954L593.141 845.074C593.155 845.402 592.988 845.658 592.671 845.725ZM600.619 844.049C600.302 844.116 600.152 843.927 600.244 843.576L611.065 804.87C611.157 804.52 611.324 804.264 611.694 804.186L619.989 802.436C620.359 802.358 620.615 802.525 620.682 802.842L633.637 836.534C633.757 836.84 633.643 837.084 633.379 837.14L625.242 838.856C624.872 838.934 624.616 838.767 624.496 838.462L622.659 832.889L611.457 835.251L609.966 841.526C609.874 841.876 609.707 842.132 609.337 842.21L600.619 844.049ZM613.362 827.013L620.231 825.564L616.511 814.207L616.406 814.23L613.362 827.013ZM637.19 835.784L636.018 799.608C636.004 799.279 636.171 799.024 636.488 798.957L644.413 797.285C644.73 797.218 644.933 797.396 644.947 797.724L645.381 811.816L654.447 795.666C654.697 795.282 654.875 795.079 655.298 794.99L664.703 793.006C665.126 792.917 665.309 793.265 665.112 793.637L654.972 810.456L666.451 829.558C666.624 829.853 666.521 830.15 666.151 830.228L657.909 831.967C657.433 832.067 657.188 831.953 657.016 831.658L649.591 818.434L645.817 825.135L646.12 833.901C646.134 834.229 646.02 834.474 645.703 834.541L637.777 836.212C637.46 836.279 637.204 836.112 637.19 835.784ZM670.369 828.787L669.196 792.61C669.182 792.282 669.349 792.026 669.613 791.971L692.333 787.179C692.65 787.112 692.853 787.29 692.868 787.618L693.087 794.415C693.101 794.743 692.881 795.01 692.617 795.066L678.615 798.019C678.457 798.053 678.32 798.192 678.365 798.403L678.534 804.438C678.526 804.661 678.654 804.744 678.865 804.699L690.278 802.292C690.595 802.226 690.798 802.403 690.812 802.732L691.062 809.412C691.076 809.74 690.856 810.007 690.539 810.074L679.074 812.492C678.915 812.525 678.832 812.653 678.823 812.876L679.006 819.239C679.051 819.45 679.126 819.545 679.337 819.5L693.287 816.559C693.604 816.492 693.807 816.67 693.821 816.998L694.04 823.795C694.054 824.123 693.887 824.379 693.57 824.446L670.903 829.226C670.639 829.282 670.383 829.115 670.369 828.787ZM709.133 821.164C708.816 821.231 708.665 821.042 708.757 820.691L719.579 781.985C719.67 781.634 719.837 781.378 720.207 781.3L728.502 779.551C728.872 779.473 729.128 779.64 729.195 779.957L742.151 813.648C742.27 813.954 742.156 814.199 741.892 814.255L733.755 815.971C733.385 816.049 733.129 815.882 733.01 815.576L731.172 810.004L719.97 812.366L718.479 818.641C718.388 818.991 718.221 819.247 717.851 819.325L709.133 821.164ZM721.875 804.127L728.744 802.679L725.025 791.322L724.919 791.344L721.875 804.127ZM770.542 808.875C764.941 810.056 758.828 808.807 756.04 806.58C755.837 806.402 755.695 805.991 755.957 805.66L760.254 799.345C760.463 799.025 760.832 798.947 761.035 799.125C763.116 800.618 766.462 801.568 769.897 800.843C773.384 800.108 775.172 797.854 774.681 795.53C774.392 794.156 773.357 793.436 770.297 793.584L768.445 793.699C761.862 794.149 757.718 791.767 756.637 786.642C754.988 778.822 759.791 772.29 768.668 770.418C773.476 769.404 778.154 770.128 781.403 771.926C781.712 772.082 781.768 772.346 781.518 772.73L777.993 779.047C777.785 779.367 777.479 779.487 777.234 779.373C774.775 778.181 772.261 777.773 769.513 778.352C766.819 778.921 765.209 780.971 765.644 783.031C765.933 784.405 767.032 785.167 770.133 784.954L771.932 784.851C778.526 784.454 782.638 786.677 783.719 791.802C785.524 800.362 780.106 806.858 770.542 808.875ZM788.789 803.812L787.617 767.636C787.603 767.308 787.769 767.052 788.086 766.985L796.012 765.313C796.329 765.246 796.532 765.424 796.546 765.753L796.993 779.124C796.985 779.347 797.113 779.43 797.271 779.397L806.782 777.391C806.994 777.346 807.077 777.218 807.085 776.996L806.638 763.624C806.624 763.296 806.791 763.04 807.108 762.973L815.034 761.302C815.351 761.235 815.607 761.402 815.621 761.73L816.793 797.906C816.807 798.235 816.641 798.491 816.324 798.557L808.398 800.229C808.081 800.296 807.825 800.129 807.811 799.801L807.369 785.931C807.378 785.709 807.25 785.626 807.038 785.67L797.527 787.676C797.369 787.709 797.286 787.837 797.277 788.06L797.719 801.929C797.733 802.257 797.619 802.502 797.302 802.569L789.376 804.241C789.059 804.307 788.803 804.141 788.789 803.812ZM835.992 795.072C828.806 796.587 823.238 793.733 821.666 786.283C820.931 782.795 820.399 772.422 821.518 768.047C823.134 761.58 827.619 757.985 833.96 756.648C841.146 755.133 846.714 757.987 848.286 765.437C849.021 768.924 849.553 779.298 848.434 783.673C846.765 790.151 842.28 793.746 835.992 795.072ZM835.366 786.87C837.744 786.369 839.156 784.691 839.715 782.366C840.284 780.094 839.997 770.883 839.429 768.188C838.894 765.652 837.175 764.303 834.585 764.849C832.208 765.351 830.796 767.028 830.237 769.354C829.668 771.626 829.955 780.837 830.523 783.532C831.058 786.068 832.777 787.416 835.366 786.87ZM869.657 787.31L861.731 788.981C861.467 789.037 861.211 788.87 861.197 788.542L860.289 760.422C860.297 760.2 860.169 760.116 859.957 760.161L851.451 761.955C851.134 762.022 850.878 761.855 850.864 761.527L850.672 754.338C850.658 754.009 850.825 753.754 851.142 753.687L877.772 748.07C878.089 748.004 878.345 748.17 878.359 748.498L878.603 755.677C878.617 756.005 878.398 756.272 878.081 756.339L869.521 758.144C869.31 758.188 869.226 758.316 869.218 758.539L870.126 786.659C870.14 786.987 869.974 787.243 869.657 787.31ZM588.542 913.026C588.225 913.093 588.075 912.904 588.167 912.553L598.988 873.847C599.08 873.496 599.247 873.24 599.617 873.162L607.912 871.413C608.282 871.335 608.538 871.502 608.605 871.819L621.56 905.51C621.68 905.816 621.566 906.061 621.302 906.117L613.165 907.833C612.795 907.911 612.539 907.744 612.419 907.438L610.582 901.866L599.38 904.228L597.889 910.503C597.797 910.853 597.631 911.109 597.261 911.187L588.542 913.026ZM601.285 895.989L608.154 894.541L604.434 883.184L604.329 883.206L601.285 895.989ZM625.114 904.761L623.941 868.584C623.927 868.256 624.094 868 624.411 867.933L631.914 866.351C632.284 866.273 632.581 866.376 632.818 866.712L643.971 886.104L644.183 886.059L643.491 864.461C643.477 864.133 643.644 863.877 643.961 863.81L651.041 862.317C651.358 862.25 651.614 862.417 651.628 862.745L652.801 898.922C652.815 899.25 652.648 899.506 652.331 899.573L644.775 901.166C644.405 901.244 644.108 901.142 643.924 900.794L632.77 881.402L632.506 881.458L633.198 903.056C633.212 903.384 633.045 903.64 632.781 903.696L625.701 905.189C625.384 905.256 625.128 905.089 625.114 904.761ZM658.447 897.731L657.274 861.555C657.26 861.226 657.427 860.97 657.691 860.915L671.112 858.084C678.192 856.591 682.785 859.265 684.267 866.292C685.17 870.572 685.629 880.078 684.49 884.623C682.874 891.089 678.531 894.047 672.402 895.34L658.981 898.17C658.717 898.226 658.461 898.059 658.447 897.731ZM667.443 888.052L670.244 887.462C673.414 886.793 674.979 885.58 675.743 882.66C676.373 880.154 676.115 872.647 675.613 870.27C674.923 866.994 673.112 865.996 669.466 866.765L666.771 867.333C666.56 867.378 666.529 867.495 666.521 867.717L667.165 887.78C667.157 888.002 667.285 888.086 667.443 888.052ZM702.16 877.916C701.424 874.429 700.831 864.289 702.023 859.733C703.608 853.383 707.69 849.708 714.189 848.337C720.265 847.056 724.727 849.371 726.981 854.304C727.154 854.599 727.093 854.832 726.756 855.069L720.425 859.329C720.036 859.577 719.749 859.527 719.619 859.168C718.633 857.113 717.298 856.015 714.92 856.516C712.701 856.984 711.395 858.64 710.784 860.976C710.195 863.418 710.46 872.523 711.017 875.165C711.552 877.701 713.271 879.05 715.701 878.537C717.973 878.058 719.205 876.308 720.027 873.927C720.16 873.513 720.391 873.299 720.742 873.39L727.712 875.563C728.021 875.718 728.118 875.918 728.027 876.269C725.876 882.296 722.192 885.502 716.116 886.783C709.3 888.221 703.709 885.261 702.16 877.916ZM732.389 882.137L731.216 845.96C731.202 845.632 731.369 845.376 731.686 845.309L739.612 843.638C739.929 843.571 740.132 843.749 740.146 844.077L741.107 872.186C741.099 872.408 741.227 872.492 741.385 872.458L755.017 869.583C755.334 869.516 755.537 869.694 755.551 870.022L755.796 877.201C755.81 877.529 755.643 877.785 755.326 877.851L732.976 882.565C732.659 882.632 732.403 882.465 732.389 882.137ZM759.788 876.359L758.615 840.182C758.601 839.854 758.768 839.598 759.085 839.531L767.011 837.859C767.328 837.793 767.531 837.971 767.545 838.299L768.718 874.475C768.732 874.804 768.618 875.048 768.301 875.115L760.375 876.787C760.058 876.854 759.802 876.687 759.788 876.359ZM773.625 862.844C772.889 859.357 772.296 849.217 773.488 844.661C775.073 838.311 779.155 834.636 785.654 833.265C791.73 831.984 796.192 834.299 798.446 839.232C798.619 839.527 798.558 839.76 798.221 839.997L791.89 844.257C791.501 844.505 791.215 844.455 791.084 844.096C790.098 842.041 788.763 840.943 786.385 841.445C784.166 841.913 782.86 843.568 782.249 845.904C781.66 848.346 781.925 857.452 782.482 860.093C783.017 862.63 784.736 863.978 787.166 863.465C789.438 862.986 790.67 861.236 791.492 858.855C791.626 858.441 791.856 858.227 792.207 858.318L799.177 860.491C799.486 860.646 799.583 860.847 799.492 861.197C797.341 867.225 793.657 870.43 787.581 871.711C780.765 873.149 775.174 870.189 773.625 862.844ZM803.854 867.065L802.681 830.889C802.667 830.56 802.834 830.304 803.151 830.238L811.077 828.566C811.394 828.499 811.597 828.677 811.611 829.005L812.044 843.097L821.11 826.947C821.361 826.563 821.538 826.36 821.961 826.271L831.366 824.287C831.789 824.198 831.973 824.545 831.775 824.918L821.636 841.737L833.115 860.839C833.287 861.134 833.184 861.431 832.815 861.509L824.572 863.248C824.096 863.348 823.852 863.234 823.679 862.939L816.254 849.715L812.48 856.416L812.783 865.182C812.797 865.51 812.683 865.755 812.366 865.822L804.441 867.493C804.124 867.56 803.868 867.393 803.854 867.065Z" fill="white"/>
<defs>
<linearGradient id="paint0_linear_1_220" x1="1075.14" y1="573.635" x2="1121.18" y2="573.635" gradientUnits="userSpaceOnUse">
<stop stop-color="#00FFB3"/>
<stop offset="0.16" stop-color="#32C8BC"/>
<stop offset="0.39" stop-color="#7482C9"/>
<stop offset="0.6" stop-color="#A84AD3"/>
<stop offset="0.78" stop-color="#CD21DA"/>
<stop offset="0.92" stop-color="#E409DF"/>
<stop offset="1" stop-color="#ED00E1"/>
</linearGradient>
<linearGradient id="paint1_linear_1_220" x1="1025.34" y1="805.023" x2="1100.28" y2="805.023" gradientUnits="userSpaceOnUse">
<stop stop-color="#00FFB3"/>
<stop offset="0.16" stop-color="#32C8BC"/>
<stop offset="0.39" stop-color="#7482C9"/>
<stop offset="0.6" stop-color="#A84AD3"/>
<stop offset="0.78" stop-color="#CD21DA"/>
<stop offset="0.92" stop-color="#E409DF"/>
<stop offset="1" stop-color="#ED00E1"/>
</linearGradient>
</defs>
</svg>
