<svg width="779" height="731" viewBox="0 0 779 731" fill="none" xmlns="http://www.w3.org/2000/svg">
<path d="M214.323 310.566C212.833 324.453 211.428 341.641 209.904 355.517L114.213 363.403C111.504 363.537 109.616 363.556 108.134 363.556C107.372 363.556 106.653 363.556 105.925 363.556C105.137 363.556 104.35 363.547 103.529 363.547C101.802 363.547 99.3721 363.566 95.9857 363.738C90.5929 363.997 85.217 364.303 79.8327 364.6L72.3827 365.021L31.7969 367.241L64.0776 395.971C64.7464 396.564 65.6438 397.358 66.0078 397.751C68.7762 402.345 69.7497 404.632 69.2249 413.752C68.2597 420.614 63.4849 455.852 64.0268 472.293L64.0606 473.116L64.1538 473.93C64.3146 475.337 65.2882 482.198 68.9963 489.146L36.5463 494.219L13.5527 590.916L168.632 556.903C169.098 556.856 169.546 556.798 169.91 556.741C177.665 555.573 188.73 549.142 196.798 536.012C196.968 536.241 197.137 536.471 197.298 536.682C200.371 540.577 204.655 542.701 209.37 542.701C211.089 542.701 212.503 542.424 213.671 542.156C217.244 541.314 220.816 540.491 224.397 539.687L226.505 539.208C229.756 538.471 232.99 537.715 236.25 536.959C245.071 534.921 254.206 532.806 263.129 530.987C266.727 530.26 269.817 528.719 272.306 526.48C273.906 527.044 275.608 527.341 277.369 527.341C278.867 527.341 280.374 527.13 282.017 526.7C284.853 525.944 287.757 525.303 290.821 524.614L293.674 523.982L302.106 522.068C309.192 520.451 316.473 518.785 323.72 517.187C322.027 533.16 321.028 550.262 321.942 565.134C322.924 580.963 326.26 596.304 331.593 609.521C341.524 634.135 360.437 647.045 378.96 658.166C417.015 681.02 459.539 692.121 508.972 692.121C510.716 692.121 512.468 692.102 514.229 692.073C541.608 691.643 564.754 685.604 584.996 673.612C597.492 666.214 612.773 654.969 620.062 633.398C632.668 596.151 645.562 558.301 658.015 521.695C665.482 499.779 672.932 477.873 680.382 455.947C708.083 374.428 732.871 301.331 756.186 232.492C757.304 229.219 758.108 226.071 759.039 222.444C759.497 220.702 759.996 218.769 760.597 216.558L763.45 206.04C777.664 187.905 779.773 164.123 768.022 143.145C758.811 126.694 745.816 112.271 728.325 99.0166C694.046 73.0622 655.408 58.5537 622.162 47.7968C618.945 46.7632 598.339 41.3656 598.339 41.3656L594.283 57.434L594.241 57.5871C593.809 57.5201 593.378 57.434 592.937 57.3862C587.011 56.7737 580.916 55.9698 575.006 55.1946C571.535 54.7448 568.056 54.3045 564.576 53.8643C559.954 53.2997 555.332 52.7637 550.718 52.2182C543.098 51.3282 535.2 50.3999 527.504 49.395C526.632 49.2802 525.76 49.2132 524.93 49.2132C521.002 49.2132 511.393 50.6583 507.203 64.0183C505.196 70.4112 503.114 76.919 501.09 83.2162C498.686 90.7192 496.205 98.4232 493.801 106.185C490.863 105.869 487.638 105.572 484.184 105.572C482.922 105.572 481.661 105.61 480.442 105.697L461.808 106.902C461.808 106.902 461.766 106.874 461.74 106.864C457.321 104.845 453.181 103.601 449.075 103.084C438.95 101.811 428.825 101.16 419.013 100.519C414.763 100.242 410.361 99.9545 406.077 99.6291C384.497 97.9639 362.579 96.4039 341.363 94.8822L329.502 94.0305C322.492 93.5329 315.483 93.0735 308.481 92.6141C305.417 92.4036 302.352 92.2122 299.304 92.0112L258.684 89.322L258.735 89.3889C248.932 88.5468 239.103 87.8577 229.502 87.2069L247.628 17.708C247.628 17.708 184.37 9.89875 170.444 8.09955C169.081 7.91771 144.817 4.25232 144.817 4.25232L140.043 22.675C135.386 41.423 130.595 60.7453 125.837 79.7422L59.6753 74.6125L104.638 110.07C106.06 111.18 106.805 111.822 107.195 112.166C114.458 119.526 112.935 131.393 110.843 140.513C107.593 154.715 104.147 169.176 100.82 183.139C98.4239 193.197 95.9603 203.59 93.5645 213.85C91.1686 224.099 88.8151 234.359 86.4615 244.627C83.3122 258.313 80.0697 272.467 76.7765 286.334C74.787 294.785 77.0897 300.604 79.384 303.982C81.2211 306.7 85.4541 311.265 93.0481 311.265C93.5475 311.265 94.0894 311.246 94.6735 311.207C99.406 310.92 104.138 310.681 108.871 310.432L111.462 310.308C115.652 310.088 119.851 309.858 124.042 309.628C135.632 308.997 147.62 308.346 159.336 308.011C162.689 307.906 167.515 307.035 171.722 303.484C174.093 305.322 177.411 306.834 181.873 306.834C182.499 306.834 183.126 306.805 183.795 306.748C187.596 306.422 191.414 306.231 195.469 306.039C196.697 305.982 197.924 305.925 199.143 305.858C202.919 305.666 206.704 305.465 210.488 305.274C210.903 305.255 211.326 305.226 211.741 305.207L215.153 304.977L214.365 310.576L214.323 310.566Z" fill="#CA4654"/>
<path d="M508.963 695.462C459.031 695.462 416.05 684.226 377.563 661.114C358.6 649.735 339.213 636.481 328.893 610.909C323.415 597.329 319.986 581.576 318.979 565.364C318.225 553.143 318.674 538.357 320.308 521.351C314.39 522.672 308.481 524.021 302.724 525.342L290.88 528.012C288.019 528.653 285.31 529.266 282.685 529.964C279.13 530.893 275.997 530.921 272.907 530.136C270.257 532.185 267.142 533.582 263.637 534.29C254.612 536.127 245.164 538.319 236.825 540.243L234.057 540.884C231.729 541.42 229.409 541.956 227.072 542.492L224.964 542.97C221.392 543.774 217.828 544.597 214.263 545.439C212.934 545.745 211.317 546.061 209.362 546.061C204.765 546.061 200.498 544.329 197.111 541.142C188.527 553.354 177.826 558.943 170.291 560.072C169.953 560.13 169.512 560.187 169.055 560.235L9.45508 595.224L34.1926 491.205L64.4076 486.477C62.0117 480.553 61.3429 475.491 61.2159 474.352L61.0974 473.261L61.0635 472.438C60.5133 455.699 65.2542 420.663 66.2701 413.38C66.7273 405.188 65.9145 403.57 63.7557 399.972C63.5271 399.752 63.0869 399.35 62.2488 398.603L23.7287 364.323L79.8072 361.251C85.1577 360.954 90.4997 360.658 95.8502 360.399C99.2535 360.227 101.734 360.208 103.52 360.208C104.257 360.208 104.951 360.208 105.654 360.217H105.942C108.16 360.236 110.293 360.265 114.035 360.083L207.254 352.398C207.939 345.91 208.608 338.761 209.26 331.822C209.946 324.482 210.657 316.883 211.377 310.184L211.394 310.06L211.605 308.576L199.228 309.218C198.009 309.285 196.773 309.342 195.545 309.399C191.753 309.581 187.816 309.763 183.972 310.098C183.219 310.165 182.516 310.194 181.822 310.194C178.105 310.194 174.727 309.275 171.756 307.466C167.379 310.471 162.697 311.256 159.37 311.361C147.679 311.696 135.708 312.347 124.135 312.979C119.944 313.218 115.745 313.438 111.546 313.658L106.898 313.897C102.852 314.108 98.8132 314.319 94.7665 314.567C94.1316 314.606 93.5305 314.625 92.9887 314.625C84.1079 314.625 79.1468 309.237 76.9711 306.031C74.2789 302.059 71.5444 295.274 73.8556 285.483C76.7679 273.214 79.6633 260.649 82.457 248.495L83.5407 243.796C85.9281 233.402 88.2647 223.22 90.6521 213.008C92.904 203.361 95.1813 193.753 97.9158 182.288L98.5593 179.589C101.675 166.507 104.892 152.974 107.931 139.7C109.844 131.336 111.267 120.943 105.239 114.751C104.875 114.426 104.181 113.851 102.902 112.846L49.1689 70.4695L123.602 76.2404C127.902 59.0522 132.228 41.6345 136.444 24.6378L137.147 21.7954L142.65 0.578247L145.173 0.961056C153.554 2.22432 169.69 4.65516 170.748 4.79871C184.506 6.5692 247.289 14.3211 247.916 14.3976L251.437 14.8283L233.363 84.1358C240.889 84.6526 248.771 85.2172 256.661 85.8776L258.828 86.002L299.448 88.6912C300.946 88.7869 302.436 88.8922 303.935 88.9879C305.501 89.0931 307.067 89.1889 308.634 89.2941C315.355 89.7344 322.552 90.2033 329.663 90.7105L345.672 91.8589C365.533 93.2849 386.08 94.7491 406.263 96.3091C410.496 96.6345 414.847 96.9216 419.055 97.1896L419.529 97.2183C429.248 97.8499 439.306 98.5102 449.388 99.7735C453.579 100.3 457.812 101.534 462.307 103.535L480.264 102.367C481.559 102.281 482.88 102.243 484.175 102.243C486.842 102.243 489.373 102.415 491.761 102.635C493.826 96.022 495.934 89.4568 497.975 83.0735L498.288 82.0878C500.159 76.2786 502.318 69.5316 504.392 62.9186C509.353 47.1086 521.349 45.8741 524.913 45.8741C525.828 45.8741 526.81 45.9411 527.826 46.075C535.343 47.0608 543.047 47.9604 550.506 48.8408L554.73 49.3385C558.108 49.7404 561.495 50.1328 564.873 50.5443C568.369 50.975 571.849 51.4248 575.32 51.8746L575.701 51.9224C581.093 52.6306 586.655 53.358 592.074 53.9322L596.247 37.3949L598.99 38.1126C599.837 38.3327 619.707 43.5389 622.957 44.5917C656.44 55.4251 695.341 70.0389 729.959 96.2517C747.822 109.784 761.088 124.541 770.511 141.366C782.625 162.994 780.915 188.355 766.083 207.726L763.416 217.554C762.815 219.755 762.316 221.669 761.867 223.402C760.91 227.134 760.097 230.321 758.938 233.718C735.14 304.002 710.343 377.09 683.134 457.173C675.683 479.099 668.225 501.005 660.766 522.921L655.221 539.209C644.571 570.504 633.557 602.87 622.814 634.615C615.169 657.229 599.312 668.933 586.359 676.599C565.685 688.849 542.108 695.012 514.263 695.443C512.502 695.481 510.724 695.491 508.963 695.491V695.462ZM327.14 513.015L326.658 517.58C324.693 536.089 324.101 552.014 324.897 564.896C325.853 580.323 329.096 595.271 334.285 608.124C343.835 631.791 362.274 644.357 380.34 655.2C417.946 677.786 460.022 688.763 508.963 688.763C510.69 688.763 512.426 688.753 514.17 688.715C541.075 688.294 563.78 682.379 583.608 670.637C595.638 663.517 610.343 652.712 617.277 632.193C628.02 600.439 639.034 568.073 649.693 536.769L655.238 520.48C662.705 498.564 670.155 476.658 677.605 454.733C704.815 374.659 729.603 301.571 753.409 231.278C754.476 228.148 755.263 225.086 756.169 221.545C756.643 219.727 757.151 217.784 757.752 215.564L760.792 204.357L761.215 203.811C774.828 186.441 776.428 164.43 765.507 144.926C756.533 128.896 743.826 114.789 726.665 101.793C692.725 76.0968 654.375 61.7032 621.332 51.0133C618.919 50.2381 606.102 46.8407 600.396 45.3381L597.035 58.6312L596.256 61.2821L593.394 60.8132C593.14 60.7653 592.895 60.727 592.632 60.6983C586.816 60.0954 580.814 59.3106 575.015 58.5546L574.642 58.5067C571.18 58.0569 567.709 57.6167 564.229 57.1765C560.86 56.765 557.49 56.3726 554.112 55.9706L549.888 55.473C542.412 54.5925 534.683 53.6929 527.14 52.6976C526.344 52.5924 525.591 52.5445 524.905 52.5445C520.799 52.5445 513.4 54.181 509.971 65.1198C507.888 71.7615 505.721 78.5181 503.85 84.3368L503.537 85.3225C501.242 92.4714 498.872 99.8692 496.578 107.277L495.807 109.746L493.496 109.497C490.592 109.191 487.451 108.903 484.158 108.903C482.973 108.903 481.771 108.942 480.586 109.018L461.478 110.253L460.564 109.975L460.36 109.832C456.271 107.985 452.462 106.855 448.72 106.387C438.789 105.142 428.816 104.492 419.173 103.86L418.699 103.831C414.475 103.554 410.106 103.276 405.848 102.941C385.682 101.391 365.144 99.9171 345.291 98.4911L329.29 97.3427C322.196 96.8355 315.008 96.3665 308.286 95.9263C306.712 95.821 305.154 95.7157 303.588 95.62C302.089 95.5243 300.591 95.4286 299.092 95.3234L265.584 93.1031L265.703 93.2562L258.473 92.6916C248.568 91.8398 238.595 91.1412 229.282 90.5191L225.566 90.2703L243.742 20.5704C230.23 18.9052 181.94 12.9334 170.063 11.4022C168.937 11.2586 153.173 8.87562 146.9 7.92817L142.142 26.3987C137.706 44.2567 133.16 62.5932 128.639 80.6235L127.987 83.2362L70.0883 78.7477L106.28 107.296C107.474 108.234 108.388 108.98 108.981 109.506L109.125 109.64C117.701 118.33 115.83 131.882 113.671 141.318C110.632 154.63 107.406 168.172 104.282 181.273L103.639 183.972C100.913 195.428 98.6355 205.027 96.3835 214.664C93.9961 224.866 91.6595 235.039 89.2806 245.432L88.1969 250.131C85.4032 262.295 82.5078 274.87 79.5871 287.158C77.9023 294.307 79.7987 299.121 81.6866 301.896C83.1936 304.126 86.6646 307.868 92.9971 307.868C93.4458 307.868 93.9369 307.849 94.4533 307.82C98.5085 307.581 102.564 307.361 106.627 307.15L111.284 306.911C115.466 306.691 119.656 306.461 123.847 306.232C135.462 305.6 147.467 304.949 159.218 304.614C162.113 304.519 166.329 303.782 169.902 300.758L171.604 299.322L173.356 300.681C175.726 302.518 178.579 303.447 181.83 303.447C182.381 303.447 182.931 303.418 183.532 303.37C187.469 303.035 191.456 302.844 195.3 302.662C196.519 302.605 197.746 302.547 198.965 302.49L211.563 301.839L218.615 301.37L217.26 311.017C216.549 317.659 215.847 325.2 215.161 332.492C214.416 340.455 213.645 348.685 212.85 355.92L212.553 358.648L114.348 366.735C110.437 366.926 108.202 366.897 105.908 366.878H105.628C104.943 366.878 104.257 366.869 103.537 366.869C101.819 366.869 99.4228 366.888 96.1295 367.06C90.779 367.318 85.454 367.615 80.1119 367.912L39.8733 370.122L65.9315 393.311C67.0659 394.316 67.7009 394.909 68.0649 395.292L68.2935 395.541L68.4713 395.838C71.5613 400.967 72.7635 404.049 72.1963 413.944L72.1624 414.251C71.5783 418.433 66.4564 455.584 66.9982 472.151L67.0236 472.811L67.0998 473.49C67.1844 474.227 67.9972 480.764 71.5444 487.405L73.8725 491.76L38.9081 497.224L17.6501 586.591L168.217 553.574L168.361 553.555C168.776 553.507 169.182 553.459 169.504 553.411C176.116 552.416 186.58 546.77 194.368 534.089L196.612 530.443L199.101 533.878C199.253 534.079 199.397 534.271 199.541 534.462C202.022 537.601 205.518 539.343 209.379 539.343C210.809 539.343 212.003 539.113 213.087 538.865C216.659 538.022 220.232 537.199 223.822 536.386L225.93 535.907C228.249 535.381 230.569 534.845 232.889 534.309L235.657 533.668C244.021 531.735 253.512 529.543 262.604 527.687C265.694 527.055 268.336 525.772 270.46 523.849L271.688 522.748L273.187 523.275C274.533 523.744 275.938 523.983 277.377 523.983C278.63 523.983 279.934 523.801 281.365 523.428C284.082 522.71 286.834 522.088 289.746 521.437L301.531 518.777C308.625 517.159 315.914 515.484 323.161 513.896L327.157 513.015H327.14Z" fill="black"/>
<path d="M553.503 341.899C549.93 344.808 547.416 349.239 546.468 354.656C542.404 377.998 538.366 400.746 534.954 419.915C533.845 426.155 535.056 430.806 536.706 434.003C535.487 434.29 534.268 434.539 533.058 434.807C530.408 435.362 527.902 436.022 525.481 436.654C520.765 437.888 516.312 439.065 512.435 439.065V456.234L512.401 439.065C510.589 439.065 509.632 438.721 509.26 438.549C509.167 438.089 509.023 436.931 509.336 434.845C511.419 420.853 513.679 406.603 515.863 392.822C516.922 386.152 517.971 379.491 519.021 372.82C519.893 367.231 520.071 360.015 517.912 352.13C521.569 348.885 524.024 344.091 524.981 338.014C526.234 330.061 527.673 321.926 529.053 314.05C529.383 312.164 529.705 310.279 530.044 308.384C533.066 308.212 536.08 308.04 539.035 307.886C542.599 307.686 546.163 307.485 549.744 307.293C551.556 307.197 553.376 307.121 555.188 307.044C554.002 313.475 552.792 320.089 551.547 326.548C550.193 333.506 551.657 338.559 553.511 341.909L553.503 341.899Z" fill="url(#paint0_linear_1_221)"/>
<path d="M509.987 613.109C518.047 613.109 526.157 612.612 534.285 611.635C533.878 611.817 533.48 611.999 533.074 612.162C521.975 616.889 510.267 619.282 498.271 619.282C488.755 619.282 478.757 617.779 468.521 614.822C467.514 614.526 466.947 614.286 466.684 614.152C464.187 611.655 461.74 609.195 459.327 606.764C476.268 611.023 493.098 613.109 509.979 613.109H509.987Z" fill="url(#paint1_linear_1_221)"/>
<path d="M168.64 22.962C188.053 25.479 207.499 27.7759 226.937 30.1684C227.276 30.2067 227.606 30.3981 228.071 30.5608C222.306 53.2805 216.558 75.9427 210.801 98.605C209.641 103.113 209.641 103.007 213.933 103.314C230.476 104.472 247.018 105.457 263.51 106.989C281.145 108.625 292.277 126.464 287.689 146.494C283.21 166.018 277.707 185.273 272.687 204.643C265.973 230.53 259.243 256.408 252.673 282.334C251.895 285.406 250.76 286.162 248.026 286.267C231.483 286.899 214.949 287.837 198.407 288.679C193.141 288.947 187.858 289.138 182.601 289.598C179.731 289.837 179.121 288.88 179.909 285.751C185.471 263.586 190.864 241.364 196.4 219.19C202.648 194.144 208.938 169.109 215.322 144.102C216.151 140.848 215.135 140.168 212.545 139.68C208.786 138.982 205.179 137.709 202.293 139.891C199.38 142.082 198.618 147.547 197.594 151.681C186.521 196.298 175.498 240.962 164.577 285.636C163.688 289.282 162.579 290.689 158.905 290.794C142.845 291.253 126.793 292.277 110.725 293.11C105.095 293.397 99.4566 293.684 93.8267 294.01C91.6679 294.134 90.6012 294.01 91.3801 290.746C97.0861 266.601 102.53 242.369 108.177 218.204C113.891 193.714 119.868 169.31 125.472 144.781C128.749 130.455 127.877 116.348 120.418 103.83C118.7 100.921 117.582 99.3419 113.265 95.9349C117.802 96.289 121.392 96.5666 124.99 96.8537C128.944 97.1503 132.169 96.7579 135.166 94.6525C138.028 92.6523 139.221 89.0635 140.246 84.9387C145.308 64.7265 150.329 44.5046 155.349 24.2732C155.594 23.2491 156.018 22.2251 155.662 21.115C155.662 21.115 165.279 22.4931 168.649 22.9429L168.64 22.962Z" fill="white"/>
<path d="M298.381 109.142C308.43 109.812 318.47 110.434 328.511 111.161C354.019 112.989 379.527 114.798 405.026 116.75C419.148 117.841 433.294 118.368 447.382 120.148C450.378 120.521 453.24 121.497 456.025 122.779C469.401 128.923 475.065 141.393 470.587 156.926C462.434 185.273 454.391 213.696 445.104 241.584C438.137 262.543 422.619 273.204 403.926 277.415C391.929 280.133 379.544 279.185 367.336 279.941C350.455 281.004 333.557 281.741 316.667 282.592C312.121 282.822 307.566 283.157 303.054 282.018C289.585 278.64 282.177 266.763 283.76 251.173C284.903 239.89 288.619 229.382 291.379 218.596C296.941 196.862 302.995 175.291 308.591 153.567C311.867 140.848 309.869 128.665 304.4 117.123C302.961 114.109 300.785 111.783 298.372 109.123M358.574 247.106C362.045 247.183 365.533 247.106 368.987 247.393C371.12 247.575 371.95 246.513 372.483 244.398C373.651 239.852 374.955 235.344 376.242 230.846C383.717 204.547 391.176 178.277 398.719 152.016C399.506 149.298 399.363 148.179 396.493 148.255C393.149 148.351 389.779 148.035 386.444 147.672C384.657 147.49 383.802 148.236 383.294 150.064C374.473 181.684 365.643 213.314 356.736 244.895C356.059 247.288 356.931 247.116 358.582 247.096" fill="white"/>
<path d="M632.558 228.205C629.84 239.804 624.092 249.441 614.881 256.351C603.952 264.553 592.074 269.07 578.825 269.548C558.692 270.275 538.586 271.845 518.445 272.601C508.286 272.974 498.093 274.965 487.934 273.185C471.281 270.256 463.975 256.801 469.317 238.512C476.801 212.912 484.632 187.445 492.294 161.922C495.867 150.045 493.539 139.202 487.689 129.01C486.232 126.454 483.98 124.894 481.288 122.827C487.807 122.397 493.674 123.583 499.558 123.985C503.173 124.244 504.663 123.095 505.856 119.124C510.851 102.577 516.312 86.2307 521.468 69.7508C522.272 67.2051 523.169 66.095 525.751 66.4299C538.146 68.0473 550.54 69.4159 562.934 70.928C572.475 72.0955 581.982 73.4736 591.54 74.4689C594.334 74.756 594.622 75.5312 593.665 78.364C588.366 94.0496 583.295 109.84 577.944 125.526C576.81 128.866 577.368 129.861 580.442 129.833C583.549 129.794 586.664 130.148 589.788 130.311C591.574 130.388 592.048 131.105 591.363 133.144C588.865 140.475 586.452 147.853 584.141 155.251C583.523 157.213 582.524 157.625 580.882 157.471C577.538 157.156 574.168 157.108 570.833 156.715C568.708 156.467 567.607 157.175 566.854 159.567C558.303 186.335 549.659 213.055 541.007 239.766C540.211 242.263 540.313 243.45 543.107 243.163C546.561 242.79 550.057 242.646 553.528 242.761C555.433 242.819 556.026 241.728 556.525 240.11C557.414 237.153 558.388 234.234 559.209 231.267C559.785 229.181 560.75 228.301 562.807 228.281C578.638 228.157 594.478 227.822 610.326 227.717C617.726 227.669 625.133 228.033 632.566 228.195" fill="white"/>
<path d="M574.337 584.915C566.938 606.965 555.517 620.976 538.407 628.24C514.279 638.509 489.593 638.643 464.796 631.465C462.07 630.68 459.107 629.474 457.058 627.426C434.454 604.793 412.011 581.949 389.593 558.281C447.466 593.557 507.845 607.654 574.337 584.915Z" fill="black"/>
<path d="M239.881 306.173C255.12 305.503 270.359 304.671 285.598 303.896C285.868 303.877 286.148 303.991 286.52 304.058C284.455 322.347 282.389 340.607 280.323 358.857C279.917 362.513 279.9 362.418 283.244 362.073C296.112 360.743 308.972 359.278 321.866 358.245C335.648 357.125 346.104 369.404 344.656 385.463C343.251 401.129 341.024 416.709 339.179 432.328C336.715 453.201 334.235 474.064 331.881 494.955C331.602 497.415 330.814 498.161 328.715 498.611C316.007 501.32 303.351 504.277 290.686 507.138C286.647 508.057 282.601 508.918 278.588 509.971C276.404 510.536 275.828 509.885 276.107 507.368C278.071 489.52 279.917 471.652 281.856 453.803C284.048 433.649 286.275 413.494 288.578 393.348C288.882 390.736 288.527 390.075 285.97 390.315C283.007 390.573 279.892 390.19 277.894 392.257C275.879 394.334 276.056 398.248 275.701 401.569C271.84 437.486 268.005 473.403 264.28 509.339C263.967 512.278 263.264 513.512 260.437 514.086C248.093 516.603 235.809 519.56 223.517 522.355C219.208 523.341 214.89 524.307 210.581 525.331C208.93 525.724 208.083 525.752 208.346 523.14C210.234 503.75 211.885 484.323 213.696 464.924C215.542 445.267 217.591 425.638 219.351 405.972C220.376 394.468 217.15 384.238 211.165 375.05C209.734 372.859 208.498 371.978 204.815 369.94C208.354 369.605 211.156 369.327 213.959 369.059C217.023 368.763 220.85 369.509 222.933 367.499C224.922 365.566 224.118 361.154 224.482 357.814C226.277 341.545 228.021 325.266 229.765 308.997C229.849 308.174 230.069 307.322 229.68 306.518C229.68 306.518 237.249 306.288 239.898 306.173H239.881Z" fill="black"/>
<path d="M352.631 354.656C360.445 353.814 368.25 352.943 376.081 352.158C395.942 350.129 415.803 348.091 435.682 346.186C446.687 345.124 457.668 343.631 468.716 343.105C471.061 342.98 473.372 343.354 475.649 343.966C486.613 346.904 492.285 355.766 490.456 368.361C487.138 391.32 483.912 414.326 479.688 437.084C476.504 454.186 465.659 464.484 451.674 470.274C442.7 473.968 433.057 474.915 423.719 477.145C410.809 480.217 397.847 483.079 384.903 486.007C381.423 486.792 377.944 487.653 374.337 487.385C363.602 486.591 356.626 478.428 356.229 466.187C355.941 457.335 357.693 448.731 358.684 440.041C360.707 422.528 363.111 405.081 365.152 387.568C366.337 377.309 363.535 368.179 358.1 360.025C356.669 357.881 354.755 356.379 352.622 354.666M413.518 452.961C416.201 452.569 418.885 452.043 421.577 451.794C423.245 451.641 423.778 450.712 423.973 449.009C424.388 445.343 424.93 441.688 425.446 438.041C428.46 416.776 431.449 395.483 434.522 374.218C434.843 372.026 434.615 371.174 432.414 371.614C429.84 372.141 427.207 372.342 424.6 372.524C423.194 372.619 422.619 373.308 422.415 374.782C418.919 400.363 415.431 425.945 411.867 451.516C411.596 453.44 412.189 453.105 413.518 452.952" fill="black"/>
<path d="M619.207 402.086C618.326 411.398 614.906 419.6 608.531 426.174C600.963 433.984 592.268 439.056 582.1 441.209C566.65 444.473 551.301 448.396 535.851 451.689C528.054 453.344 520.4 456.244 512.375 456.244C499.227 456.215 492.183 446.827 494.385 432.003C497.466 411.245 500.844 390.554 504.087 369.834C505.585 360.197 502.656 352.139 497.085 345.076C495.68 343.296 493.784 342.387 491.489 341.172C496.476 339.966 501.132 340.081 505.704 339.612C508.523 339.315 509.539 338.224 510.055 335.008C512.172 321.572 514.669 308.241 516.912 294.823C517.268 292.737 517.852 291.78 519.876 291.694C529.586 291.273 539.305 290.66 549.032 290.153C556.499 289.77 563.983 289.56 571.459 289.043C573.643 288.89 573.956 289.435 573.507 291.751C571.061 304.556 568.809 317.428 566.328 330.233C565.795 332.96 566.328 333.669 568.699 333.228C571.095 332.769 573.533 332.635 575.954 332.329C577.334 332.157 577.783 332.645 577.47 334.31C576.31 340.301 575.226 346.311 574.21 352.35C573.956 353.938 573.211 354.388 571.933 354.493C569.308 354.704 566.701 355.115 564.093 355.259C562.434 355.345 561.664 356.044 561.325 357.977C557.532 379.787 553.672 401.55 549.803 423.332C549.447 425.361 549.65 426.26 551.775 425.667C554.408 424.921 557.083 424.337 559.776 423.964C561.257 423.753 561.604 422.844 561.807 421.504C562.188 419.112 562.637 416.738 562.95 414.326C563.179 412.642 563.839 411.829 565.422 411.541C577.63 409.321 589.804 406.919 602.021 404.718C607.727 403.684 613.467 402.967 619.215 402.096" fill="black"/>
<path d="M193.191 425.361C193.191 425.361 203.469 387.951 184.116 377.864C184.116 377.864 180.611 376.189 169.419 376.802L114.991 380.563C106.957 380.955 104.68 380.486 96.6372 380.879C88.7977 381.261 80.9582 381.721 73.1188 382.151C75.1675 383.989 77.0385 385.577 78.3676 387.788C83.4642 396.229 85.132 402.325 84.3023 415.676C84.3023 415.676 78.647 455.612 79.1719 471.642C79.1719 471.642 79.773 476.782 82.5837 481.318C83.0916 482.237 83.6843 483.041 84.3446 483.701C86.1055 485.691 88.4252 487.309 91.4983 487.921C93.6487 488.553 96.1208 488.802 99.0161 488.496L146.798 483.787L145.977 494.439L48.5675 509.665L34.4971 568.818L166.693 539.83L167.006 539.811C167.065 539.811 167.387 539.792 167.912 539.696C172.441 539.017 187.087 531.389 191.066 507.32L195.511 463.335L195.536 463.115C196.129 458.455 196.976 447.707 191.168 441.075C188.383 437.869 184.192 436.74 178.384 437.62C178.19 437.639 178.003 437.678 177.8 437.716L130.399 440.597L131.043 430.51L193.183 425.361H193.191Z" fill="black"/>
<path d="M706.321 241.048C690.642 287.186 674.523 332.434 658.531 378.419C641.379 427.734 624.362 477.116 606.677 526.183C604.264 532.873 599.252 539.553 593.868 543.409C585.995 549.065 576.995 553.506 567.945 556.157C502.072 575.527 439.737 565.899 381.931 524.489C362.849 510.813 348.186 492.821 347.255 465.192C347.255 465.192 334.598 524.173 337.053 563.918C337.841 576.838 340.584 590.543 345.35 602.362C353.35 622.182 369.698 633.168 386.037 642.978C426.031 666.98 469.224 675.584 514 674.875C536.215 674.521 557.888 670.263 577.969 658.367C590.135 651.16 600.717 642.538 605.89 627.225C625.912 568.034 646.12 508.918 666.227 449.755C691.514 375.289 716.794 301.503 742.022 227.009C743.394 222.989 742.717 224.731 745.011 218.434C737.772 221.573 732.126 222.836 727.029 224.97C717.403 228.99 710.546 228.645 706.321 241.029V241.048ZM524.998 645.571C475.59 656.328 428.79 645.638 385.538 616.966C376.251 610.803 367.836 601.711 361.198 592.055C356.186 584.762 352.825 574.608 351.979 565.354C350.514 549.247 351.572 532.853 351.572 516.584L351.589 512.88L353.621 515.129C423.516 587.069 503.502 599.577 591.286 566.617C581.355 609.071 569.579 635.867 524.989 645.581L524.998 645.571Z" fill="black"/>
<path d="M755.221 152.342C746.264 136.331 733.844 123.861 719.892 113.305C688.653 89.6473 653.739 75.8757 617.988 64.3054C614.999 63.3483 611.807 63.1665 608.709 62.6401C608.463 63.511 608.218 64.3915 607.964 65.2624C610.969 67.2625 613.822 69.6838 616.997 71.1959C631.55 78.1056 646.205 84.7378 660.808 91.523C682.024 101.4 702.579 112.061 718.978 131.431C738.069 153.988 736.875 177.55 713.534 191.436C712.806 191.876 712.129 192.326 711.35 192.747C711.223 192.805 711.096 192.872 710.986 192.929C691.972 203.743 670.409 210.519 650.04 214.74L647.237 215.725C649.803 234.014 637.476 247.977 637.476 247.977L650.04 243.412C683.734 233.899 710.554 221.707 723.397 215.352C723.973 215.065 724.557 214.778 725.082 214.51C726.115 214.012 727.114 213.486 728.121 212.959C729.603 212.203 730.619 211.648 731.186 211.342C731.364 211.246 731.524 211.122 731.711 211.026C735.91 208.615 740.033 205.897 744.003 202.738C760.368 189.752 765.244 170.228 755.221 152.323V152.342Z" fill="black"/>
<path d="M26.6713 653.725L18.7457 655.397C18.4815 655.452 18.2255 655.286 18.2115 654.957L17.3032 626.838C17.3115 626.615 17.1835 626.532 16.9722 626.576L8.4653 628.37C8.14827 628.437 7.89234 628.27 7.87832 627.942L7.68665 620.753C7.67263 620.425 7.8394 620.169 8.15643 620.102L34.7866 614.486C35.1037 614.419 35.3596 614.586 35.3736 614.914L35.6181 622.092C35.6322 622.42 35.4125 622.687 35.0955 622.754L26.5358 624.559C26.3244 624.604 26.2411 624.732 26.2328 624.954L27.1411 653.074C27.1551 653.402 26.9883 653.658 26.6713 653.725ZM34.6193 652.049C34.3022 652.116 34.152 651.927 34.2436 651.576L45.0652 612.87C45.1569 612.52 45.3236 612.264 45.6935 612.186L53.989 610.436C54.3589 610.358 54.6148 610.525 54.6817 610.842L67.6371 644.534C67.7568 644.84 67.6429 645.084 67.3787 645.14L59.2417 646.856C58.8718 646.934 58.6159 646.767 58.4962 646.462L56.6586 640.889L45.457 643.251L43.9658 649.526C43.8741 649.876 43.7074 650.132 43.3375 650.21L34.6193 652.049ZM47.362 635.013L54.2309 633.564L50.5112 622.207L50.4056 622.23L47.362 635.013ZM71.1904 643.784L70.0178 607.608C70.0038 607.279 70.1706 607.024 70.4876 606.957L78.4133 605.285C78.7303 605.218 78.9334 605.396 78.9474 605.724L79.3807 619.816L88.4471 603.666C88.6972 603.282 88.8751 603.079 89.2978 602.99L98.703 601.006C99.1257 600.917 99.3093 601.265 99.112 601.637L88.9724 618.456L100.451 637.558C100.624 637.853 100.521 638.15 100.151 638.228L91.9086 639.967C91.433 640.067 91.1883 639.953 91.0157 639.658L83.5909 626.434L79.8165 633.135L80.12 641.901C80.134 642.229 80.0201 642.474 79.7031 642.541L71.7774 644.212C71.4604 644.279 71.2045 644.112 71.1904 643.784ZM104.369 636.787L103.196 600.61C103.182 600.282 103.349 600.026 103.613 599.971L126.333 595.179C126.65 595.112 126.853 595.29 126.868 595.618L127.087 602.415C127.101 602.743 126.881 603.01 126.617 603.066L112.615 606.019C112.457 606.053 112.32 606.192 112.365 606.403L112.534 612.438C112.526 612.661 112.654 612.744 112.865 612.699L124.278 610.292C124.595 610.226 124.798 610.403 124.812 610.732L125.062 617.412C125.076 617.74 124.856 618.007 124.539 618.074L113.074 620.492C112.915 620.525 112.832 620.653 112.823 620.876L113.006 627.239C113.051 627.45 113.126 627.545 113.337 627.5L127.287 624.559C127.604 624.492 127.807 624.67 127.821 624.998L128.04 631.795C128.054 632.123 127.887 632.379 127.57 632.446L104.903 637.226C104.639 637.282 104.383 637.115 104.369 636.787ZM143.133 629.164C142.816 629.231 142.665 629.042 142.757 628.691L153.579 589.985C153.67 589.634 153.837 589.378 154.207 589.3L162.502 587.551C162.872 587.473 163.128 587.64 163.195 587.957L176.151 621.648C176.27 621.954 176.156 622.199 175.892 622.255L167.755 623.971C167.385 624.049 167.129 623.882 167.01 623.576L165.172 618.004L153.97 620.366L152.479 626.641C152.388 626.991 152.221 627.247 151.851 627.325L143.133 629.164ZM155.875 612.127L162.744 610.679L159.025 599.322L158.919 599.344L155.875 612.127ZM204.542 616.875C198.941 618.056 192.828 616.807 190.04 614.58C189.837 614.402 189.695 613.991 189.957 613.66L194.254 607.345C194.463 607.025 194.832 606.947 195.035 607.125C197.116 608.618 200.462 609.568 203.897 608.843C207.384 608.108 209.172 605.854 208.681 603.53C208.392 602.156 207.357 601.436 204.297 601.584L202.445 601.699C195.862 602.149 191.718 599.767 190.637 594.642C188.988 586.822 193.791 580.29 202.668 578.418C207.476 577.404 212.154 578.128 215.403 579.926C215.712 580.082 215.768 580.346 215.518 580.73L211.993 587.047C211.785 587.367 211.479 587.487 211.234 587.373C208.775 586.181 206.261 585.773 203.513 586.352C200.819 586.921 199.209 588.971 199.644 591.031C199.933 592.405 201.032 593.167 204.133 592.954L205.932 592.851C212.526 592.454 216.638 594.677 217.719 599.802C219.524 608.362 214.106 614.858 204.542 616.875ZM222.789 611.812L221.617 575.636C221.603 575.308 221.769 575.052 222.086 574.985L230.012 573.313C230.329 573.246 230.532 573.424 230.546 573.753L230.993 587.124C230.985 587.347 231.113 587.43 231.271 587.397L240.782 585.391C240.994 585.346 241.077 585.218 241.085 584.996L240.638 571.624C240.624 571.296 240.791 571.04 241.108 570.973L249.034 569.302C249.351 569.235 249.607 569.402 249.621 569.73L250.793 605.906C250.807 606.235 250.641 606.491 250.324 606.557L242.398 608.229C242.081 608.296 241.825 608.129 241.811 607.801L241.369 593.931C241.378 593.709 241.25 593.626 241.038 593.67L231.527 595.676C231.369 595.709 231.286 595.837 231.277 596.06L231.719 609.929C231.733 610.257 231.619 610.502 231.302 610.569L223.376 612.241C223.059 612.307 222.803 612.141 222.789 611.812ZM269.992 603.072C262.806 604.587 257.238 601.733 255.666 594.283C254.931 590.795 254.399 580.422 255.518 576.047C257.134 569.58 261.619 565.985 267.96 564.648C275.146 563.133 280.714 565.987 282.286 573.437C283.021 576.924 283.553 587.298 282.434 591.673C280.765 598.151 276.28 601.746 269.992 603.072ZM269.366 594.87C271.744 594.369 273.156 592.691 273.715 590.366C274.284 588.094 273.997 578.883 273.429 576.188C272.894 573.652 271.175 572.303 268.585 572.849C266.208 573.351 264.796 575.028 264.237 577.354C263.668 579.626 263.955 588.837 264.523 591.532C265.058 594.068 266.777 595.416 269.366 594.87ZM303.657 595.31L295.731 596.981C295.467 597.037 295.211 596.87 295.197 596.542L294.289 568.422C294.297 568.2 294.169 568.116 293.957 568.161L285.451 569.955C285.134 570.022 284.878 569.855 284.864 569.527L284.672 562.338C284.658 562.009 284.825 561.754 285.142 561.687L311.772 556.07C312.089 556.004 312.345 556.17 312.359 556.498L312.603 563.677C312.617 564.005 312.398 564.272 312.081 564.339L303.521 566.144C303.31 566.188 303.226 566.316 303.218 566.539L304.126 594.659C304.14 594.987 303.974 595.243 303.657 595.31ZM22.5425 721.026C22.2255 721.093 22.0752 720.904 22.1669 720.553L32.9884 681.847C33.0801 681.496 33.2469 681.24 33.6167 681.162L41.9123 679.413C42.2821 679.335 42.538 679.502 42.6049 679.819L55.5603 713.51C55.68 713.816 55.5661 714.061 55.3019 714.117L47.1649 715.833C46.795 715.911 46.5391 715.744 46.4194 715.438L44.5819 709.866L33.3803 712.228L31.889 718.503C31.7974 718.853 31.6306 719.109 31.2607 719.187L22.5425 721.026ZM35.2852 703.989L42.1541 702.541L38.4344 691.184L38.3288 691.206L35.2852 703.989ZM59.1136 712.761L57.9411 676.584C57.927 676.256 58.0938 676 58.4108 675.933L65.9138 674.351C66.2837 674.273 66.5813 674.376 66.8178 674.712L77.9715 694.104L78.1829 694.059L77.491 672.461C77.477 672.133 77.6438 671.877 77.9608 671.81L85.041 670.317C85.3581 670.25 85.614 670.417 85.628 670.745L86.8006 706.922C86.8146 707.25 86.6479 707.506 86.3308 707.573L78.775 709.166C78.4052 709.244 78.1076 709.142 77.9239 708.794L66.7702 689.402L66.506 689.458L67.1978 711.056C67.2118 711.384 67.0451 711.64 66.7809 711.696L59.7006 713.189C59.3836 713.256 59.1277 713.089 59.1136 712.761ZM92.4468 705.731L91.2742 669.555C91.2602 669.226 91.427 668.97 91.6912 668.915L105.112 666.084C112.192 664.591 116.785 667.265 118.267 674.292C119.17 678.572 119.629 688.078 118.49 692.623C116.874 699.089 112.531 702.047 106.402 703.34L92.981 706.17C92.7168 706.226 92.4608 706.059 92.4468 705.731ZM101.443 696.052L104.244 695.462C107.414 694.793 108.979 693.58 109.743 690.66C110.373 688.154 110.115 680.647 109.613 678.27C108.923 674.994 107.112 673.996 103.466 674.765L100.771 675.333C100.56 675.378 100.529 675.495 100.521 675.717L101.165 695.78C101.157 696.002 101.285 696.086 101.443 696.052ZM136.16 685.916C135.424 682.429 134.831 672.289 136.023 667.733C137.608 661.383 141.69 657.708 148.189 656.337C154.265 655.056 158.727 657.371 160.981 662.304C161.154 662.599 161.093 662.832 160.756 663.069L154.425 667.329C154.036 667.577 153.749 667.527 153.619 667.168C152.633 665.113 151.298 664.015 148.92 664.516C146.701 664.984 145.395 666.64 144.784 668.976C144.195 671.418 144.46 680.523 145.017 683.165C145.552 685.701 147.271 687.05 149.701 686.537C151.973 686.058 153.205 684.308 154.027 681.927C154.16 681.513 154.391 681.299 154.742 681.39L161.712 683.563C162.021 683.718 162.118 683.918 162.027 684.269C159.876 690.296 156.192 693.502 150.116 694.783C143.3 696.221 137.709 693.261 136.16 685.916ZM166.389 690.137L165.216 653.96C165.202 653.632 165.369 653.376 165.686 653.309L173.612 651.638C173.929 651.571 174.132 651.749 174.146 652.077L175.107 680.186C175.099 680.408 175.227 680.492 175.385 680.458L189.017 677.583C189.334 677.516 189.537 677.694 189.551 678.022L189.796 685.201C189.81 685.529 189.643 685.785 189.326 685.851L166.976 690.565C166.659 690.632 166.403 690.465 166.389 690.137ZM193.788 684.359L192.615 648.182C192.601 647.854 192.768 647.598 193.085 647.531L201.011 645.859C201.328 645.793 201.531 645.971 201.545 646.299L202.718 682.475C202.732 682.804 202.618 683.048 202.301 683.115L194.375 684.787C194.058 684.854 193.802 684.687 193.788 684.359ZM207.625 670.844C206.889 667.357 206.296 657.217 207.488 652.661C209.073 646.311 213.155 642.636 219.654 641.265C225.73 639.984 230.192 642.299 232.446 647.232C232.619 647.527 232.558 647.76 232.221 647.997L225.89 652.257C225.501 652.505 225.215 652.455 225.084 652.096C224.098 650.041 222.763 648.943 220.385 649.445C218.166 649.913 216.86 651.568 216.249 653.904C215.66 656.346 215.925 665.452 216.482 668.093C217.017 670.63 218.736 671.978 221.166 671.465C223.438 670.986 224.67 669.236 225.492 666.855C225.626 666.441 225.856 666.227 226.207 666.318L233.177 668.491C233.486 668.646 233.583 668.847 233.492 669.197C231.341 675.225 227.657 678.43 221.581 679.711C214.765 681.149 209.174 678.189 207.625 670.844ZM237.854 675.065L236.681 638.889C236.667 638.56 236.834 638.304 237.151 638.238L245.077 636.566C245.394 636.499 245.597 636.677 245.611 637.005L246.044 651.097L255.11 634.947C255.361 634.563 255.538 634.36 255.961 634.271L265.366 632.287C265.789 632.198 265.973 632.545 265.775 632.918L255.636 649.737L267.115 668.839C267.287 669.134 267.184 669.431 266.815 669.509L258.572 671.248C258.096 671.348 257.852 671.234 257.679 670.939L250.254 657.715L246.48 664.416L246.783 673.182C246.797 673.51 246.683 673.755 246.366 673.822L238.441 675.493C238.124 675.56 237.868 675.393 237.854 675.065Z" fill="white"/>
<defs>
<linearGradient id="paint0_linear_1_221" x1="509.141" y1="381.635" x2="555.179" y2="381.635" gradientUnits="userSpaceOnUse">
<stop stop-color="#00FFB3"/>
<stop offset="0.16" stop-color="#32C8BC"/>
<stop offset="0.39" stop-color="#7482C9"/>
<stop offset="0.6" stop-color="#A84AD3"/>
<stop offset="0.78" stop-color="#CD21DA"/>
<stop offset="0.92" stop-color="#E409DF"/>
<stop offset="1" stop-color="#ED00E1"/>
</linearGradient>
<linearGradient id="paint1_linear_1_221" x1="459.336" y1="613.023" x2="534.285" y2="613.023" gradientUnits="userSpaceOnUse">
<stop stop-color="#00FFB3"/>
<stop offset="0.16" stop-color="#32C8BC"/>
<stop offset="0.39" stop-color="#7482C9"/>
<stop offset="0.6" stop-color="#A84AD3"/>
<stop offset="0.78" stop-color="#CD21DA"/>
<stop offset="0.92" stop-color="#E409DF"/>
<stop offset="1" stop-color="#ED00E1"/>
</linearGradient>
</defs>
</svg>
