<svg width="43" height="43" viewBox="0 0 43 43" fill="none" xmlns="http://www.w3.org/2000/svg">
<path id="Vector" d="M21.2737 10.5778C15.2877 10.5778 10.4593 15.4062 10.4593 21.3923C10.4593 27.3783 15.2877 32.2067 21.2737 32.2067C27.2598 32.2067 32.0882 27.3783 32.0882 21.3923C32.0882 15.4062 27.2598 10.5778 21.2737 10.5778ZM21.2737 28.4231C17.4054 28.4231 14.243 25.27 14.243 21.3923C14.243 17.5145 17.396 14.3615 21.2737 14.3615C25.1515 14.3615 28.3045 17.5145 28.3045 21.3923C28.3045 25.27 25.1421 28.4231 21.2737 28.4231ZM35.053 10.1355C35.053 11.5379 33.9235 12.6579 32.5305 12.6579C31.1282 12.6579 30.0081 11.5285 30.0081 10.1355C30.0081 8.74249 31.1376 7.61304 32.5305 7.61304C33.9235 7.61304 35.053 8.74249 35.053 10.1355ZM42.2155 12.6955C42.0555 9.31662 41.2837 6.3236 38.8084 3.85764C36.3424 1.39169 33.3494 0.619902 29.9705 0.450486C26.488 0.252833 16.0501 0.252833 12.5676 0.450486C9.19811 0.61049 6.20508 1.38228 3.72971 3.84823C1.25435 6.31418 0.491973 9.30721 0.322556 12.6861C0.124903 16.1686 0.124903 26.6065 0.322556 30.089C0.482561 33.4679 1.25435 36.4609 3.72971 38.9269C6.20508 41.3928 9.18869 42.1646 12.5676 42.334C16.0501 42.5317 26.488 42.5317 29.9705 42.334C33.3494 42.174 36.3424 41.4023 38.8084 38.9269C41.2743 36.4609 42.0461 33.4679 42.2155 30.089C42.4132 26.6065 42.4132 16.178 42.2155 12.6955ZM37.7166 33.8256C36.9824 35.6703 35.5612 37.0915 33.7071 37.8351C30.9305 38.9363 24.3421 38.6822 21.2737 38.6822C18.2054 38.6822 11.6076 38.9269 8.84045 37.8351C6.99569 37.101 5.57447 35.6797 4.83092 33.8256C3.72971 31.049 3.98384 24.4606 3.98384 21.3923C3.98384 18.3239 3.73913 11.7261 4.83092 8.95897C5.56506 7.11421 6.98628 5.69299 8.84045 4.94944C11.617 3.84823 18.2054 4.10236 21.2737 4.10236C24.3421 4.10236 30.9399 3.85764 33.7071 4.94944C35.5518 5.68358 36.973 7.10479 37.7166 8.95897C38.8178 11.7355 38.5637 18.3239 38.5637 21.3923C38.5637 24.4606 38.8178 31.0584 37.7166 33.8256Z" fill="#E9E9E9"/>
</svg>
