<svg width="43" height="44" viewBox="0 0 43 44" fill="none" xmlns="http://www.w3.org/2000/svg">
<path id="Vector" d="M21.331 11.1857C15.3449 11.1857 10.5166 16.0141 10.5166 22.0002C10.5166 27.9862 15.3449 32.8146 21.331 32.8146C27.3171 32.8146 32.1454 27.9862 32.1454 22.0002C32.1454 16.0141 27.3171 11.1857 21.331 11.1857ZM21.331 29.031C17.4627 29.031 14.3002 25.8779 14.3002 22.0002C14.3002 18.1224 17.4532 14.9694 21.331 14.9694C25.2088 14.9694 28.3618 18.1224 28.3618 22.0002C28.3618 25.8779 25.1993 29.031 21.331 29.031ZM35.1102 10.7434C35.1102 12.1458 33.9808 13.2658 32.5878 13.2658C31.1854 13.2658 30.0654 12.1364 30.0654 10.7434C30.0654 9.3504 31.1948 8.22095 32.5878 8.22095C33.9808 8.22095 35.1102 9.3504 35.1102 10.7434ZM42.2728 13.3035C42.1128 9.92453 41.341 6.93151 38.8656 4.46555C36.3997 1.9996 33.4066 1.22781 30.0277 1.0584C26.5453 0.860743 16.1073 0.860743 12.6249 1.0584C9.25536 1.2184 6.26233 1.99019 3.78696 4.45614C1.3116 6.92209 0.549224 9.91512 0.379807 13.294C0.182154 16.7765 0.182154 27.2144 0.379807 30.6969C0.539812 34.0758 1.3116 37.0688 3.78696 39.5348C6.26233 42.0008 9.24594 42.7725 12.6249 42.942C16.1073 43.1396 26.5453 43.1396 30.0277 42.942C33.4066 42.782 36.3997 42.0102 38.8656 39.5348C41.3316 37.0688 42.1034 34.0758 42.2728 30.6969C42.4704 27.2144 42.4704 16.7859 42.2728 13.3035ZM37.7738 34.4335C37.0397 36.2782 35.6185 37.6995 33.7643 38.443C30.9878 39.5442 24.3993 39.2901 21.331 39.2901C18.2627 39.2901 11.6648 39.5348 8.8977 38.443C7.05294 37.7089 5.63172 36.2876 4.88817 34.4335C3.78696 31.6569 4.04109 25.0685 4.04109 22.0002C4.04109 18.9319 3.79638 12.334 4.88817 9.56688C5.62231 7.72212 7.04353 6.3009 8.8977 5.55735C11.6742 4.45614 18.2627 4.71027 21.331 4.71027C24.3993 4.71027 30.9972 4.46555 33.7643 5.55735C35.6091 6.29149 37.0303 7.71271 37.7738 9.56688C38.875 12.3434 38.6209 18.9319 38.6209 22.0002C38.6209 25.0685 38.875 31.6663 37.7738 34.4335Z" fill="#CA4654"/>
</svg>
