<svg width="45" height="59" viewBox="0 0 45 59" fill="none" xmlns="http://www.w3.org/2000/svg">
<path d="M20.4275 0C21.5798 0 22.7322 0 23.8845 0C24.7142 0.129062 25.55 0.228932 26.3736 0.391797C38.1305 2.7349 46.2461 14.0878 43.8938 26.7344C43.1148 30.9197 41.5353 34.81 39.4842 38.5144C35.3434 45.9908 29.8905 52.424 23.697 58.261C23.3836 58.556 22.9795 58.7557 22.6185 59H21.6966C21.2372 58.6635 20.7348 58.3716 20.323 57.9829C15.9533 53.8636 11.9892 49.3864 8.54449 44.462C5.44392 40.0278 2.81658 35.3493 1.24478 30.1361C-0.403839 24.6709 -0.574385 19.2103 1.67345 13.8727C4.54356 7.0462 9.58929 2.61198 16.7692 0.683724C17.963 0.362604 19.206 0.222786 20.4275 0ZM9.88582 22.1342C9.89658 28.9131 15.3756 34.389 22.1514 34.3952C28.9195 34.4013 34.4092 28.9208 34.4246 22.1419C34.4415 15.3538 28.9026 9.81797 22.1299 9.85331C15.3326 9.88865 9.87353 15.363 9.88429 22.1342H9.88582Z" fill="#CA4654"/>
</svg>
