<svg width="137" height="129" viewBox="0 0 137 129" fill="none" xmlns="http://www.w3.org/2000/svg">
<path d="M37.6958 54.565C37.4346 56.9991 37.1883 60.0121 36.9211 62.4446L20.1473 63.8269C19.6724 63.8504 19.3415 63.8537 19.0818 63.8537C18.9482 63.8537 18.8221 63.8537 18.6944 63.8537C18.5564 63.8537 18.4184 63.8521 18.2745 63.8521C17.9717 63.8521 17.5458 63.8554 16.9522 63.8856C16.0069 63.9309 15.0645 63.9846 14.1207 64.0366L12.8148 64.1104L5.70038 64.4996L11.3589 69.5357C11.4762 69.6397 11.6335 69.779 11.6973 69.8478C12.1826 70.653 12.3532 71.0539 12.2612 72.6527C12.092 73.8555 11.2551 80.0324 11.35 82.9145L11.356 83.0587L11.3723 83.2013C11.4005 83.4479 11.5711 84.6508 12.2211 85.8687L6.53291 86.7578L2.50232 103.708L29.6865 97.746C29.7682 97.7376 29.8468 97.7276 29.9106 97.7175C31.27 97.5128 33.2096 96.3855 34.6239 94.0838C34.6536 94.1241 34.6832 94.1644 34.7114 94.2013C35.2501 94.884 36.001 95.2565 36.8276 95.2565C37.1289 95.2565 37.3767 95.2078 37.5815 95.1609C38.2078 95.0132 38.834 94.8689 39.4618 94.728L39.8313 94.6441C40.4012 94.515 40.968 94.3824 41.5394 94.2499C43.0857 93.8926 44.687 93.5219 46.2511 93.2031C46.8819 93.0756 47.4235 92.8055 47.8598 92.413C48.1403 92.5119 48.4386 92.5639 48.7473 92.5639C49.0099 92.5639 49.2741 92.527 49.562 92.4515C50.0591 92.319 50.5682 92.2066 51.1054 92.0858L51.6055 91.9751L53.0836 91.6396C54.3257 91.3561 55.6019 91.0642 56.8723 90.784C56.5755 93.5839 56.4003 96.5818 56.5606 99.1887C56.7328 101.963 57.3175 104.653 58.2524 106.969C59.9931 111.284 63.3084 113.547 66.5555 115.497C73.2261 119.503 80.6803 121.449 89.3455 121.449C89.6512 121.449 89.9584 121.445 90.2671 121.44C95.0664 121.365 99.1237 120.306 102.672 118.204C104.862 116.907 107.541 114.936 108.819 111.155C111.028 104.626 113.289 97.9909 115.472 91.5742C116.781 87.7325 118.086 83.8925 119.392 80.0492C124.248 65.7595 128.593 52.9461 132.68 40.8792C132.876 40.3055 133.017 39.7536 133.18 39.1178C133.261 38.8124 133.348 38.4736 133.453 38.086L133.954 36.2424C136.445 33.0633 136.815 28.8945 134.755 25.2173C133.14 22.3335 130.862 19.8054 127.796 17.4819C121.788 12.9323 115.015 10.3891 109.187 8.5035C108.623 8.32232 105.011 7.37616 105.011 7.37616L104.3 10.1928L104.293 10.2197C104.217 10.2079 104.141 10.1928 104.064 10.1844C103.025 10.0771 101.957 9.93615 100.921 9.80027C100.312 9.72142 99.7025 9.64425 99.0925 9.56709C98.2823 9.46811 97.472 9.37416 96.6632 9.27854C95.3276 9.12253 93.943 8.9598 92.594 8.78365C92.4412 8.76352 92.2883 8.75178 92.1429 8.75178C91.4543 8.75178 89.77 9.0051 89.0354 11.347C88.6836 12.4676 88.3186 13.6084 87.9639 14.7122C87.5424 16.0275 87.1076 17.3779 86.6862 18.7384C86.1712 18.6831 85.6058 18.6311 85.0003 18.6311C84.7792 18.6311 84.5581 18.6378 84.3444 18.6529L81.0781 18.8643C81.0781 18.8643 81.0706 18.8592 81.0662 18.8576C80.2915 18.5036 79.5658 18.2855 78.8461 18.1949C77.0712 17.9718 75.2963 17.8577 73.5764 17.7453C72.8314 17.6967 72.0597 17.6463 71.3088 17.5893C67.526 17.2974 63.6839 17.024 59.965 16.7572L57.8858 16.6079C56.6571 16.5207 55.4283 16.4402 54.201 16.3596C53.6638 16.3227 53.1266 16.2892 52.5924 16.2539L45.472 15.7825L45.4809 15.7943C43.7625 15.6467 42.0395 15.5259 40.3566 15.4118L43.5339 3.22917C43.5339 3.22917 32.4453 1.86026 30.0041 1.54487C29.7652 1.513 25.512 0.870483 25.512 0.870483L24.675 4.09984C23.8588 7.38623 23.0189 10.7733 22.1848 14.1033L10.5872 13.2041L18.4689 19.4195C18.7182 19.6141 18.8488 19.7265 18.917 19.7869C20.1903 21.077 19.9232 23.1572 19.5566 24.7559C18.9868 27.2455 18.3828 29.7803 17.7996 32.2279C17.3796 33.9911 16.9477 35.8129 16.5278 37.6113C16.1078 39.408 15.6952 41.2063 15.2827 43.0064C14.7306 45.4053 14.1622 47.8865 13.585 50.3173C13.2362 51.7986 13.6399 52.8186 14.042 53.4108C14.3641 53.8872 15.1061 54.6874 16.4372 54.6874C16.5248 54.6874 16.6198 54.6841 16.7222 54.6774C17.5517 54.627 18.3813 54.5851 19.2109 54.5415L19.665 54.5197C20.3996 54.4811 21.1356 54.4408 21.8702 54.4006C23.9018 54.2898 26.0032 54.1758 28.0571 54.117C28.6448 54.0986 29.4907 53.9459 30.2282 53.3235C30.6437 53.6456 31.2255 53.9107 32.0076 53.9107C32.1174 53.9107 32.2272 53.9057 32.3444 53.8956C33.0107 53.8386 33.68 53.805 34.3909 53.7715C34.6061 53.7614 34.8212 53.7513 35.0349 53.7396C35.6968 53.706 36.3602 53.6708 37.0235 53.6373C37.0962 53.6339 37.1704 53.6289 37.2432 53.6255L37.8412 53.5852L37.7032 54.5666L37.6958 54.565Z" fill="white"/>
<path d="M89.3441 122.034C80.5913 122.034 73.057 120.065 66.3106 116.013C62.9864 114.019 59.588 111.695 57.779 107.213C56.8188 104.832 56.2178 102.071 56.0412 99.2291C55.9091 97.0869 55.9878 94.495 56.2742 91.5139C55.2369 91.7454 54.201 91.982 53.1919 92.2135L51.1158 92.6815C50.6142 92.7939 50.1393 92.9013 49.6792 93.0238C49.0559 93.1865 48.5069 93.1915 47.9652 93.0539C47.5007 93.4129 46.9546 93.6579 46.3402 93.782C44.7582 94.1041 43.1021 94.4883 41.6403 94.8255L41.155 94.9379C40.7469 95.0318 40.3403 95.1258 39.9307 95.2197L39.5612 95.3036C38.9349 95.4445 38.3102 95.5888 37.6854 95.7364C37.4524 95.7901 37.169 95.8455 36.8262 95.8455C36.0203 95.8455 35.2724 95.5418 34.6788 94.9832C33.174 97.1238 31.2982 98.1035 29.9774 98.3014C29.9181 98.3115 29.8409 98.3216 29.7608 98.33L1.78406 104.463L6.12036 86.2295L11.4168 85.4008C10.9968 84.3624 10.8796 83.4749 10.8573 83.2753L10.8366 83.0841L10.8306 82.9398C10.7342 80.0057 11.5652 73.864 11.7433 72.5874C11.8234 71.1514 11.681 70.8679 11.3025 70.2371C11.2625 70.1985 11.1853 70.1281 11.0384 69.9972L4.28611 63.9881L14.1162 63.4496C15.0541 63.3976 15.9906 63.3456 16.9285 63.3003C17.525 63.2701 17.9598 63.2667 18.273 63.2667C18.4021 63.2667 18.5238 63.2667 18.6469 63.2684H18.6974C19.0862 63.2718 19.4602 63.2768 20.1161 63.2449L36.4566 61.8978C36.5768 60.7604 36.6941 59.5073 36.8083 58.291C36.9286 57.0043 37.0532 55.6723 37.1794 54.498L37.1823 54.4762L37.2194 54.2162L35.0498 54.3286C34.8361 54.3403 34.6194 54.3504 34.4042 54.3604C33.7394 54.3923 33.0493 54.4242 32.3756 54.4829C32.2435 54.4946 32.1203 54.4997 31.9987 54.4997C31.3472 54.4997 30.755 54.3386 30.2342 54.0216C29.4669 54.5483 28.6463 54.6859 28.063 54.7043C26.0136 54.7631 23.9152 54.8771 21.8866 54.9879C21.152 55.0298 20.4159 55.0684 19.6798 55.107L18.8651 55.1489C18.1557 55.1858 17.4479 55.2227 16.7385 55.2663C16.6272 55.273 16.5218 55.2764 16.4269 55.2764C14.8701 55.2764 14.0005 54.3319 13.6191 53.7699C13.1472 53.0737 12.6678 51.8843 13.073 50.1682C13.5835 48.0175 14.091 45.8148 14.5807 43.6843L14.7707 42.8606C15.1892 41.0387 15.5988 39.2538 16.0173 37.4638C16.412 35.7728 16.8112 34.0885 17.2906 32.0788L17.4033 31.6057C17.9495 29.3124 18.5134 26.9403 19.0461 24.6135C19.3815 23.1473 19.6308 21.3254 18.5742 20.24C18.5104 20.183 18.3887 20.0823 18.1646 19.9062L8.74558 12.4778L21.7931 13.4894C22.5469 10.4765 23.3053 7.42328 24.0443 4.44389L24.1675 3.94565L25.1321 0.22644L25.5743 0.293544C27.0435 0.514985 29.8721 0.941092 30.0576 0.966255C32.4691 1.27661 43.4746 2.63545 43.5844 2.64887L44.2017 2.72436L41.0334 14.8734C42.3526 14.964 43.7343 15.063 45.1174 15.1788L45.4973 15.2006L52.6176 15.672C52.8803 15.6887 53.1414 15.7072 53.4041 15.724C53.6787 15.7424 53.9532 15.7592 54.2277 15.7777C55.4061 15.8548 56.6675 15.937 57.914 16.0259L60.7203 16.2272C64.2018 16.4772 67.8035 16.7339 71.3414 17.0073C72.0834 17.0644 72.8462 17.1147 73.5838 17.1617L73.6669 17.1667C75.3705 17.2774 77.1336 17.3932 78.901 17.6146C79.6356 17.7069 80.3776 17.9233 81.1656 18.2739L84.3132 18.0692C84.5403 18.0541 84.7718 18.0474 84.9988 18.0474C85.4663 18.0474 85.91 18.0776 86.3285 18.1162C86.6906 16.957 87.0601 15.8062 87.4178 14.6872L87.4727 14.5144C87.8007 13.4961 88.1791 12.3134 88.5427 11.1542C89.4123 8.38286 91.5152 8.16645 92.1399 8.16645C92.3002 8.16645 92.4724 8.17819 92.6504 8.20168C93.9682 8.37447 95.3187 8.53216 96.6261 8.6865L97.3667 8.77374C97.9588 8.8442 98.5524 8.91298 99.1445 8.98511C99.7574 9.0606 100.367 9.13945 100.976 9.2183L101.043 9.22668C101.988 9.35083 102.963 9.47832 103.913 9.57898L104.644 6.68011L105.125 6.80593C105.273 6.84451 108.756 7.75712 109.326 7.94165C115.196 9.84068 122.015 12.4024 128.083 16.9973C131.214 19.3694 133.54 21.9562 135.191 24.9054C137.315 28.6967 137.015 33.1423 134.415 36.5378L133.948 38.2607C133.842 38.6465 133.755 38.982 133.676 39.2857C133.508 39.9399 133.366 40.4986 133.163 41.0941C128.991 53.4143 124.644 66.226 119.875 80.264C118.569 84.1074 117.261 87.9474 115.954 91.7891L114.982 94.6443C113.115 100.13 111.184 105.804 109.301 111.368C107.961 115.332 105.181 117.384 102.911 118.728C99.287 120.875 95.154 121.955 90.273 122.031C89.9644 122.038 89.6527 122.039 89.3441 122.039V122.034ZM57.4718 90.0527L57.3872 90.853C57.0429 94.0974 56.939 96.8889 57.0785 99.1469C57.2462 101.851 57.8146 104.472 58.7243 106.725C60.3983 110.873 63.6305 113.076 66.7974 114.977C73.3894 118.936 80.7649 120.86 89.3441 120.86C89.6468 120.86 89.951 120.858 90.2567 120.852C94.9729 120.778 98.9531 119.741 102.429 117.683C104.537 116.434 107.115 114.54 108.331 110.944C110.214 105.377 112.144 99.7039 114.013 94.2165L114.985 91.3613C116.294 87.5196 117.6 83.6796 118.906 79.8362C123.675 65.7999 128.021 52.9882 132.194 40.6663C132.381 40.1177 132.519 39.5809 132.677 38.9602C132.76 38.6415 132.85 38.3009 132.955 37.9117L133.488 35.9473L133.562 35.8516C135.948 32.8068 136.229 28.9484 134.314 25.5295C132.741 22.7195 130.514 20.2467 127.506 17.9686C121.556 13.4643 114.834 10.9412 109.041 9.06732C108.618 8.93143 106.372 8.33589 105.371 8.07251L104.782 10.4027L104.646 10.8674L104.144 10.7852C104.1 10.7768 104.057 10.7701 104.011 10.765C102.991 10.6593 101.939 10.5218 100.922 10.3893L100.857 10.3809C100.25 10.302 99.6416 10.2248 99.0317 10.1477C98.4411 10.0755 97.8504 10.0068 97.2583 9.9363L96.5178 9.84907C95.2074 9.69473 93.8525 9.53704 92.5302 9.36257C92.3907 9.34412 92.2587 9.33573 92.1385 9.33573C91.4187 9.33573 90.1217 9.6226 89.5207 11.5401C89.1556 12.7043 88.7757 13.8887 88.4477 14.9087L88.3928 15.0815C87.9906 16.3346 87.5751 17.6314 87.1729 18.9298L87.0379 19.3627L86.6328 19.319C86.1237 19.2654 85.5732 19.215 84.9959 19.215C84.7881 19.215 84.5774 19.2217 84.3696 19.2352L81.0202 19.4516L80.8599 19.4029L80.8243 19.3778C80.1075 19.054 79.4397 18.856 78.7838 18.7738C77.043 18.5557 75.2949 18.4417 73.6046 18.3309L73.5215 18.3259C72.7809 18.2773 72.0152 18.2286 71.2687 18.1699C67.7338 17.8981 64.1336 17.6398 60.6535 17.3898L57.8488 17.1885C56.6051 17.0996 55.3452 17.0174 54.1669 16.9402C53.8909 16.9218 53.6178 16.9033 53.3433 16.8865C53.0806 16.8698 52.8179 16.853 52.5553 16.8345L46.6815 16.4453L46.7023 16.4722L45.4349 16.3732C43.6986 16.2239 41.9505 16.1014 40.3181 15.9924L39.6666 15.9488L42.8528 3.73092C40.4843 3.43902 32.0194 2.3922 29.9374 2.12379C29.74 2.09863 26.9767 1.68091 25.8771 1.51483L25.0431 4.75257C24.2654 7.88294 23.4685 11.0972 22.6761 14.2578L22.5618 14.7157L12.4126 13.929L18.7568 18.9332C18.966 19.0976 19.1263 19.2284 19.2302 19.3207L19.2554 19.3442C20.7587 20.8674 20.4307 23.2429 20.0523 24.897C19.5195 27.2305 18.9541 29.6043 18.4065 31.9009L18.2938 32.374C17.8159 34.3821 17.4167 36.0647 17.0219 37.754C16.6035 39.5423 16.1939 41.3256 15.7769 43.1475L15.5869 43.9711C15.0972 46.1034 14.5896 48.3077 14.0777 50.4617C13.7823 51.7149 14.1148 52.5587 14.4457 53.0452C14.7098 53.4361 15.3183 54.092 16.4283 54.092C16.507 54.092 16.5931 54.0887 16.6836 54.0836C17.3944 54.0417 18.1053 54.0031 18.8176 53.9662L19.6338 53.9243C20.3669 53.8857 21.1015 53.8454 21.8361 53.8052C23.8722 53.6944 25.9765 53.5804 28.0363 53.5216C28.5439 53.5049 29.2829 53.3757 29.9092 52.8456L30.2074 52.5939L30.5146 52.8322C30.9302 53.1543 31.4303 53.317 32.0001 53.317C32.0966 53.317 32.1931 53.3119 32.2984 53.3036C32.9885 53.2448 33.6875 53.2113 34.3612 53.1794C34.5749 53.1694 34.7901 53.1593 35.0038 53.1492L37.212 53.0351L38.4482 52.9529L38.2108 54.644C38.0861 55.8082 37.9629 57.1301 37.8427 58.4084C37.7121 59.8042 37.5771 61.2469 37.4376 62.5152L37.3856 62.9933L20.171 64.4109C19.4854 64.4444 19.0936 64.4394 18.6915 64.436H18.6425C18.5223 64.436 18.4021 64.4343 18.2759 64.4343C17.9747 64.4343 17.5547 64.4377 16.9774 64.4679C16.0395 64.5132 15.1061 64.5652 14.1697 64.6172L7.11613 65.0047L11.6839 69.0695C11.8828 69.2457 11.9941 69.3497 12.0579 69.4168L12.098 69.4604L12.1291 69.5124C12.6708 70.4116 12.8815 70.9518 12.7821 72.6864L12.7762 72.7401C12.6738 73.4732 11.7759 79.9855 11.8709 82.8895L11.8754 83.0052L11.8887 83.1243C11.9036 83.2535 12.046 84.3993 12.6678 85.5635L13.0759 86.3268L6.94695 87.2847L3.22059 102.95L29.6138 97.1624L29.6391 97.159C29.7118 97.1506 29.783 97.1422 29.8394 97.1338C30.9984 96.9594 32.8327 95.9696 34.198 93.7468L34.5912 93.1076L35.0275 93.7099C35.0542 93.7451 35.0795 93.7787 35.1047 93.8122C35.5395 94.3625 36.1524 94.6678 36.8291 94.6678C37.0799 94.6678 37.2892 94.6275 37.4791 94.5839C38.1054 94.4363 38.7316 94.292 39.3609 94.1494L39.7304 94.0655C40.137 93.9733 40.5436 93.8793 40.9502 93.7854L41.4355 93.673C42.9017 93.3341 44.5653 92.9499 46.1591 92.6245C46.7008 92.5138 47.1638 92.289 47.5363 91.9518L47.7515 91.7588L48.0142 91.8511C48.2501 91.9333 48.4965 91.9753 48.7488 91.9753C48.9684 91.9753 49.1969 91.9434 49.4477 91.878C49.9241 91.7521 50.4064 91.6431 50.9169 91.529L52.9827 91.0627C54.2263 90.7791 55.504 90.4856 56.7743 90.2071L57.4748 90.0527H57.4718Z" fill="black"/>
<path d="M97.1515 60.0574C96.5253 60.5674 96.0845 61.3441 95.9183 62.2936C95.206 66.3852 94.4981 70.3729 93.9001 73.7331C93.7056 74.8269 93.9179 75.6422 94.2072 76.2025C93.9935 76.2528 93.7799 76.2964 93.5676 76.3434C93.1031 76.4407 92.6639 76.5565 92.2394 76.6672C91.4129 76.8836 90.6323 77.0899 89.9526 77.0899V80.0995L89.9466 77.0899C89.6291 77.0899 89.4614 77.0295 89.3961 76.9993C89.3797 76.9188 89.3545 76.7158 89.4094 76.3501C89.7745 73.8975 90.1707 71.3996 90.5536 68.9838C90.7391 67.8146 90.9231 66.647 91.1071 65.4777C91.26 64.498 91.2912 63.2331 90.9127 61.8507C91.5538 61.282 91.9842 60.4416 92.1519 59.3763C92.3715 57.9822 92.6238 56.5563 92.8657 55.1756C92.9236 54.8451 92.98 54.5147 93.0393 54.1825C93.5691 54.1523 94.0974 54.1221 94.6154 54.0953C95.2401 54.06 95.8649 54.0248 96.4926 53.9913C96.8102 53.9745 97.1293 53.9611 97.4469 53.9476C97.2391 55.075 97.0269 56.2342 96.8087 57.3666C96.5713 58.5862 96.828 59.4719 97.153 60.0591L97.1515 60.0574Z" fill="url(#paint0_linear_1_669)"/>
<path d="M89.5237 107.598C90.9364 107.598 92.3581 107.511 93.7828 107.34C93.7116 107.372 93.6418 107.404 93.5706 107.432C91.625 108.261 89.5726 108.68 87.4698 108.68C85.8018 108.68 84.0491 108.417 82.255 107.899C82.0784 107.847 81.9789 107.805 81.9329 107.781C81.4951 107.343 81.0663 106.912 80.6433 106.486C83.6128 107.233 86.563 107.598 89.5222 107.598H89.5237Z" fill="url(#paint1_linear_1_669)"/>
<path d="M29.688 4.15019C33.0909 4.59139 36.4997 4.99402 39.907 5.41341C39.9663 5.42012 40.0242 5.45367 40.1058 5.48219C39.0952 9.46478 38.0876 13.4373 37.0784 17.4098C36.8751 18.2 36.8751 18.1815 37.6275 18.2352C40.5273 18.4382 43.4271 18.611 46.3179 18.8794C49.4091 19.1663 51.3606 22.2933 50.5563 25.8045C49.7712 29.2267 48.8066 32.602 47.9266 35.9975C46.7498 40.5353 45.57 45.0715 44.4184 49.6161C44.2819 50.1546 44.083 50.2871 43.6037 50.3056C40.7039 50.4163 37.8056 50.5807 34.9058 50.7283C33.9828 50.7753 33.0567 50.8089 32.1352 50.8894C31.6321 50.9313 31.5252 50.7636 31.6633 50.215C32.6383 46.3297 33.5836 42.4344 34.5541 38.5474C35.6493 34.1572 36.752 29.7686 37.8709 25.3851C38.0163 24.8147 37.8383 24.6956 37.3841 24.61C36.7252 24.4876 36.093 24.2644 35.587 24.6469C35.0765 25.0311 34.9429 25.989 34.7634 26.7137C32.8223 34.5346 30.8901 42.3639 28.9757 50.1949C28.8199 50.834 28.6255 51.0806 27.9814 51.0991C25.1662 51.1796 22.3525 51.3591 19.5359 51.5051C18.549 51.5554 17.5606 51.6057 16.5738 51.6628C16.1953 51.6846 16.0084 51.6628 16.1449 51.0907C17.1451 46.8582 18.0993 42.6105 19.0892 38.3746C20.0909 34.0817 21.1386 29.8038 22.121 25.5042C22.6953 22.9928 22.5425 20.5201 21.2351 18.3258C20.9338 17.8158 20.7379 17.539 19.9811 16.9418C20.7765 17.0038 21.4057 17.0525 22.0364 17.1028C22.7295 17.1548 23.2949 17.086 23.8202 16.717C24.3218 16.3664 24.5311 15.7373 24.7106 15.0142C25.5981 11.4712 26.4781 7.92643 27.3581 4.38002C27.4012 4.20052 27.4754 4.02102 27.413 3.82642C27.413 3.82642 29.0989 4.06799 29.6895 4.14683L29.688 4.15019Z" fill="#CA4654"/>
<path d="M52.4306 19.2568C54.1921 19.3742 55.9522 19.4832 57.7122 19.6107C62.1836 19.9312 66.6549 20.2482 71.1248 20.5905C73.6001 20.7817 76.0799 20.874 78.5493 21.186C79.0746 21.2514 79.5762 21.4225 80.0645 21.6473C82.4092 22.7243 83.402 24.9102 82.617 27.633C81.1879 32.602 79.7781 37.5844 78.1501 42.4729C76.9288 46.1468 74.2085 48.0156 70.9318 48.7538C68.829 49.2302 66.6579 49.0641 64.5179 49.1966C61.5588 49.3829 58.5967 49.512 55.6361 49.6613C54.8392 49.7016 54.0407 49.7603 53.2498 49.5607C50.8887 48.9685 49.5902 46.8866 49.8677 44.1538C50.068 42.1759 50.7195 40.334 51.2033 38.4433C52.1783 34.6335 53.2394 30.8522 54.2203 27.0441C54.7946 24.8146 54.4444 22.679 53.4857 20.6559C53.2334 20.1274 52.8521 19.7198 52.4291 19.2534M62.982 43.4408C63.5904 43.4543 64.2018 43.4408 64.8073 43.4912C65.1813 43.523 65.3267 43.3368 65.4202 42.9661C65.625 42.1692 65.8535 41.3791 66.0791 40.5906C67.3895 35.9806 68.6969 31.3756 70.0192 26.7724C70.1572 26.2959 70.132 26.0996 69.6289 26.1131C69.0427 26.1298 68.452 26.0745 67.8673 26.0107C67.5542 25.9789 67.4043 26.1097 67.3153 26.4301C65.7689 31.9729 64.2211 37.5173 62.6599 43.0533C62.5412 43.4727 62.6941 43.4425 62.9834 43.4392" fill="#CA4654"/>
<path d="M111.009 40.1276C110.533 42.1609 109.525 43.8502 107.911 45.0614C105.995 46.4991 103.913 47.2909 101.59 47.3748C98.0611 47.5023 94.5366 47.7774 91.0061 47.91C89.2253 47.9754 87.4385 48.3243 85.6577 48.0123C82.7386 47.4989 81.4579 45.1403 82.3944 41.9344C83.7062 37.4469 85.0789 32.9828 86.422 28.5087C87.0482 26.4268 86.6401 24.5261 85.6147 22.7395C85.3594 22.2915 84.9647 22.0181 84.4928 21.6557C85.6355 21.5802 86.6639 21.7883 87.6953 21.8587C88.3289 21.904 88.5901 21.7027 88.7994 21.0065C89.6749 18.106 90.6321 15.2407 91.5359 12.3519C91.6769 11.9056 91.8342 11.711 92.2868 11.7697C94.4594 12.0532 96.632 12.2931 98.8046 12.5582C100.477 12.7629 102.144 13.0044 103.819 13.1789C104.309 13.2292 104.359 13.3651 104.192 13.8617C103.263 16.6112 102.374 19.3793 101.436 22.1288C101.237 22.7143 101.335 22.8888 101.874 22.8837C102.418 22.877 102.964 22.9391 103.512 22.9676C103.825 22.981 103.908 23.1069 103.788 23.4642C103.35 24.7492 102.927 26.0426 102.522 27.3394C102.414 27.6833 102.239 27.7554 101.951 27.7286C101.365 27.6732 100.774 27.6649 100.189 27.5961C99.8167 27.5525 99.6238 27.6766 99.4917 28.096C97.9929 32.7882 96.4777 37.472 94.961 42.1542C94.8215 42.592 94.8393 42.8 95.329 42.7497C95.9345 42.6843 96.5474 42.6591 97.1559 42.6792C97.4898 42.6893 97.5937 42.4981 97.6812 42.2145C97.837 41.6962 98.0077 41.1845 98.1517 40.6645C98.2526 40.2987 98.4217 40.1444 98.7824 40.1411C101.557 40.1192 104.334 40.0605 107.112 40.0421C108.409 40.0337 109.708 40.0974 111.011 40.126" fill="#CA4654"/>
<path d="M100.804 102.656C99.5066 106.521 97.5047 108.977 94.5055 110.251C90.276 112.051 85.9486 112.074 81.602 110.816C81.1241 110.678 80.6047 110.467 80.2456 110.108C76.2832 106.141 72.3491 102.136 68.4194 97.9875C78.5642 104.171 89.1482 106.642 100.804 102.656Z" fill="black"/>
<path d="M42.176 53.7949C44.8472 53.6775 47.5184 53.5315 50.1897 53.3956C50.2372 53.3923 50.2861 53.4124 50.3514 53.4242C49.9893 56.63 49.6272 59.8309 49.2651 63.03C49.1939 63.6708 49.1909 63.6541 49.7771 63.5937C52.0328 63.3605 54.287 63.1038 56.5472 62.9226C58.9632 62.7264 60.7959 64.8787 60.5422 67.6937C60.2958 70.4399 59.9055 73.171 59.582 75.9088C59.1502 79.5676 58.7153 83.2248 58.3028 86.8869C58.2538 87.3181 58.1158 87.4489 57.7478 87.5278C55.5203 88.0025 53.3017 88.5209 51.0816 89.0225C50.3737 89.1836 49.6643 89.3345 48.9609 89.5191C48.578 89.6181 48.4771 89.504 48.5261 89.0628C48.8704 85.9341 49.1939 82.802 49.5337 79.6733C49.9181 76.1403 50.3084 72.6073 50.712 69.076C50.7655 68.618 50.7031 68.5023 50.255 68.5442C49.7356 68.5895 49.1894 68.5224 48.8392 68.8848C48.486 69.2488 48.5172 69.9349 48.4549 70.5171C47.7781 76.813 47.1059 83.109 46.4529 89.4084C46.398 89.9234 46.2748 90.1398 45.7792 90.2404C43.6155 90.6816 41.4622 91.2 39.3074 91.6899C38.552 91.8627 37.7952 92.0321 37.0398 92.2116C36.7504 92.2804 36.602 92.2854 36.648 91.8274C36.9789 88.4286 37.2683 85.0231 37.5859 81.6227C37.9094 78.1769 38.2686 74.7362 38.5772 71.2888C38.7568 69.2723 38.1914 67.479 37.1422 65.8685C36.8914 65.4843 36.6747 65.33 36.0292 64.9726C36.6495 64.9139 37.1407 64.8653 37.6319 64.8183C38.1691 64.7663 38.8399 64.8972 39.205 64.5449C39.5537 64.206 39.4127 63.4326 39.4765 62.8472C39.7912 59.9953 40.0969 57.1417 40.4026 54.2898C40.4174 54.1455 40.456 53.9962 40.3877 53.8553C40.3877 53.8553 41.7144 53.815 42.1789 53.7949H42.176Z" fill="black"/>
<path d="M61.9402 62.2936C63.3099 62.1459 64.6782 61.9933 66.0509 61.8557C69.5324 61.5001 73.0139 61.1427 76.4984 60.8089C78.4276 60.6227 80.3524 60.361 82.289 60.2687C82.7001 60.2469 83.1053 60.3123 83.5045 60.4197C85.4263 60.9347 86.4206 62.4882 86.1 64.6959C85.5183 68.7204 84.9529 72.7533 84.2123 76.7426C83.6543 79.7404 81.7533 81.5455 79.3017 82.5605C77.7287 83.208 76.0384 83.3741 74.4015 83.765C72.1384 84.3035 69.8663 84.8051 67.5973 85.3184C66.9873 85.456 66.3774 85.607 65.7452 85.56C63.8635 85.4207 62.6407 83.9898 62.5709 81.8441C62.5205 80.2924 62.8276 78.7842 63.0013 77.261C63.356 74.191 63.7774 71.1327 64.1351 68.0628C64.3428 66.2644 63.8516 64.664 62.8989 63.2347C62.6481 62.8589 62.3127 62.5955 61.9387 62.2952M72.6133 79.5257C73.0837 79.4569 73.5541 79.3647 74.026 79.321C74.3184 79.2942 74.4119 79.1315 74.446 78.8329C74.5187 78.1903 74.6137 77.5495 74.7042 76.9104C75.2325 73.1828 75.7564 69.4501 76.2951 65.7225C76.3515 65.3384 76.3114 65.1891 75.9256 65.2662C75.4744 65.3585 75.0129 65.3937 74.5558 65.4256C74.3095 65.4424 74.2086 65.5632 74.173 65.8215C73.5601 70.3057 72.9486 74.7899 72.3239 79.2724C72.2764 79.6096 72.3803 79.5509 72.6133 79.524" fill="black"/>
<path d="M108.669 70.6077C108.515 72.24 107.915 73.6777 106.798 74.8302C105.471 76.1991 103.947 77.0882 102.164 77.4656C99.4561 78.0377 96.7656 78.7255 94.0573 79.3026C92.6905 79.5928 91.3489 80.1011 89.9421 80.1011C87.6374 80.0961 86.4027 78.4504 86.7885 75.8518C87.3287 72.2131 87.9208 68.5862 88.4892 64.9542C88.7519 63.2649 88.2384 61.8524 87.2619 60.6143C87.0156 60.3023 86.6832 60.1429 86.281 59.9298C87.1551 59.7185 87.9713 59.7386 88.7727 59.6564C89.2668 59.6044 89.4449 59.4131 89.5355 58.8495C89.9065 56.4941 90.3442 54.1573 90.7375 51.8053C90.7998 51.4396 90.9022 51.2718 91.2569 51.2567C92.9591 51.1829 94.6627 51.0755 96.3679 50.9866C97.6768 50.9195 98.9887 50.8826 100.299 50.792C100.682 50.7652 100.737 50.8608 100.658 51.2668C100.229 53.5114 99.8345 55.7678 99.3997 58.0124C99.3062 58.4905 99.3997 58.6146 99.8152 58.5374C100.235 58.4569 100.663 58.4334 101.087 58.3798C101.329 58.3496 101.408 58.4351 101.353 58.727C101.149 59.7772 100.959 60.8307 100.781 61.8893C100.737 62.1677 100.606 62.2466 100.382 62.265C99.9221 62.3019 99.465 62.3741 99.0079 62.3992C98.7171 62.4143 98.582 62.5368 98.5227 62.8757C97.8578 66.6989 97.1811 70.5137 96.5029 74.3319C96.4406 74.6876 96.4762 74.8453 96.8487 74.7412C97.3102 74.6104 97.7792 74.5081 98.2511 74.4426C98.5108 74.4057 98.5716 74.2464 98.6073 74.0115C98.674 73.5921 98.7527 73.1761 98.8076 72.7533C98.8477 72.458 98.9634 72.3155 99.2409 72.2651C101.381 71.8759 103.515 71.4548 105.656 71.069C106.657 70.8878 107.663 70.762 108.67 70.6093" fill="black"/>
<path d="M123.939 42.3791C121.191 50.4667 118.365 58.3983 115.562 66.4591C112.556 75.1037 109.573 83.76 106.473 92.361C106.05 93.5337 105.171 94.7046 104.227 95.3807C102.847 96.3721 101.27 97.1505 99.6832 97.6152C88.136 101.011 77.2092 99.323 67.0763 92.0641C63.7314 89.6668 61.1611 86.513 60.9978 81.6698C60.9978 81.6698 58.7792 92.0087 59.2096 98.9757C59.3476 101.24 59.8284 103.643 60.6639 105.715C62.0663 109.189 64.9319 111.115 67.7961 112.834C74.8066 117.042 82.378 118.55 90.227 118.426C94.1211 118.364 97.9202 117.617 101.44 115.532C103.573 114.269 105.428 112.757 106.335 110.073C109.844 99.6971 113.387 89.3347 116.911 78.9638C121.344 65.9105 125.775 52.9764 130.198 39.918C130.438 39.2134 130.319 39.5188 130.721 38.4149C129.453 38.9652 128.463 39.1866 127.569 39.5607C125.882 40.2653 124.68 40.2049 123.939 42.3757V42.3791ZM92.1548 113.289C83.494 115.174 75.2904 113.301 67.7085 108.275C66.0806 107.194 64.6055 105.601 63.442 103.908C62.5635 102.63 61.9743 100.85 61.8259 99.2274C61.5692 96.404 61.7547 93.5303 61.7547 90.6784L61.7576 90.0292L62.1138 90.4234C74.3658 103.034 88.3868 105.226 103.775 99.4488C102.034 106.891 99.9696 111.588 92.1533 113.291L92.1548 113.289Z" fill="black"/>
<path d="M132.511 26.8295C130.941 24.0229 128.764 21.837 126.318 19.9866C120.842 15.8396 114.722 13.4256 108.455 11.3974C107.931 11.2296 107.372 11.1977 106.829 11.1055C106.786 11.2581 106.743 11.4125 106.698 11.5651C107.225 11.9157 107.725 12.3402 108.282 12.6052C110.833 13.8164 113.402 14.979 115.961 16.1684C119.68 17.8997 123.284 19.7685 126.158 23.164C129.505 27.118 129.295 31.2482 125.204 33.6824C125.076 33.7596 124.958 33.8384 124.821 33.9122C124.799 33.9223 124.777 33.934 124.757 33.9441C121.424 35.8398 117.644 37.0275 114.074 37.7673L113.583 37.9401C114.032 41.146 111.872 43.5936 111.872 43.5936L114.074 42.7934C119.98 41.1259 124.682 38.9886 126.933 37.8747C127.034 37.8244 127.136 37.774 127.228 37.7271C127.409 37.6398 127.584 37.5476 127.761 37.4553C128.021 37.3228 128.199 37.2255 128.298 37.1718C128.329 37.155 128.357 37.1332 128.39 37.1164C129.126 36.6937 129.849 36.2172 130.545 35.6636C133.414 33.3872 134.268 29.9649 132.511 26.8261V26.8295Z" fill="black"/>
<path d="M33.9916 74.6875C33.9916 74.6875 35.7932 68.1299 32.4007 66.3617C32.4007 66.3617 31.7864 66.0681 29.8245 66.1755L20.2837 66.8348C18.8754 66.9035 18.4762 66.8213 17.0664 66.8901C15.6922 66.9572 14.318 67.0377 12.9438 67.1132C13.3029 67.4353 13.6309 67.7138 13.8639 68.1013C14.7573 69.581 15.0496 70.6496 14.9042 72.9898C14.9042 72.9898 13.9129 79.9904 14.0049 82.8003C14.0049 82.8003 14.1102 83.7012 14.6029 84.4964C14.692 84.6574 14.7958 84.7983 14.9116 84.9141C15.2203 85.263 15.6269 85.5465 16.1656 85.6539C16.5425 85.7646 16.9759 85.8082 17.4834 85.7546L25.8592 84.9292L25.7152 86.7964L8.64014 89.4654L6.17371 99.8345L29.3466 94.7531L29.4015 94.7498C29.4119 94.7498 29.4683 94.7464 29.5603 94.7296C30.3543 94.6105 32.9216 93.2735 33.6191 89.0544L34.3982 81.3442L34.4027 81.3056C34.5066 80.4886 34.655 78.6047 33.6369 77.4421C33.1487 76.8801 32.4141 76.6822 31.3961 76.8365C31.3619 76.8399 31.3293 76.8466 31.2937 76.8533L22.9847 77.3583L23.0974 75.5901L33.9901 74.6875H33.9916Z" fill="black"/>
<defs>
<linearGradient id="paint0_linear_1_669" x1="89.3753" y1="67.0227" x2="97.4454" y2="67.0227" gradientUnits="userSpaceOnUse">
<stop stop-color="#00FFB3"/>
<stop offset="0.16" stop-color="#32C8BC"/>
<stop offset="0.39" stop-color="#7482C9"/>
<stop offset="0.6" stop-color="#A84AD3"/>
<stop offset="0.78" stop-color="#CD21DA"/>
<stop offset="0.92" stop-color="#E409DF"/>
<stop offset="1" stop-color="#ED00E1"/>
</linearGradient>
<linearGradient id="paint1_linear_1_669" x1="80.6448" y1="107.583" x2="93.7828" y2="107.583" gradientUnits="userSpaceOnUse">
<stop stop-color="#00FFB3"/>
<stop offset="0.16" stop-color="#32C8BC"/>
<stop offset="0.39" stop-color="#7482C9"/>
<stop offset="0.6" stop-color="#A84AD3"/>
<stop offset="0.78" stop-color="#CD21DA"/>
<stop offset="0.92" stop-color="#E409DF"/>
<stop offset="1" stop-color="#ED00E1"/>
</linearGradient>
</defs>
</svg>
