<svg width="46" height="46" viewBox="0 0 46 46" fill="none" xmlns="http://www.w3.org/2000/svg">
<path d="M0 46C0.366692 44.6647 0.710963 43.4099 1.05523 42.1552C1.74956 39.6235 2.4504 37.0932 3.12737 34.5571C3.18451 34.3419 3.14907 34.0474 3.04203 33.8523C0.842597 29.8557 -0.147545 25.5696 0.269776 21.0475C0.988695 13.2557 4.76266 7.27004 11.4767 3.18987C15.532 0.724349 19.9974 -0.300733 24.7217 0.0757546C32.206 0.672519 38.0731 4.14657 42.255 10.3367C45.1711 14.6544 46.311 19.4846 45.9284 24.6561C45.2015 34.4793 37.8112 42.9312 28.1196 45.0555C22.6539 46.2534 17.4334 45.5436 12.4531 43.0119C12.2773 42.9226 12.0213 42.8945 11.8296 42.9435C8.07012 43.9102 4.31424 44.8929 0.557633 45.8711C0.404302 45.9107 0.249524 45.9424 0 45.9993L0 46ZM5.53004 40.5514C5.64359 40.5269 5.70145 40.5168 5.75859 40.5017C7.89292 39.9481 10.0302 39.4054 12.1587 38.8302C12.5688 38.7193 12.8791 38.7827 13.2327 38.995C16.9865 41.2424 21.0555 42.1142 25.3965 41.6002C29.2529 41.1438 32.6436 39.5961 35.5887 37.0701C41.4948 32.0052 43.6921 23.4835 40.9408 16.2532C37.5292 7.28588 28.3669 2.31164 18.9537 4.34813C10.8858 6.09307 4.4965 13.1304 4.09437 22.0013C3.93164 25.5847 4.7576 28.9566 6.51946 32.0944C6.82105 32.6315 7.29985 33.1505 7.36422 33.7156C7.43004 34.2871 7.08215 34.9055 6.91725 35.5037C6.4587 37.1702 6.00088 38.8367 5.53004 40.5514Z" fill="#CA4654"/>
<path d="M12 18.0181C12.0342 16.2643 12.7307 14.818 13.989 13.6068C14.4107 13.2008 14.9056 12.9878 15.4982 13.0005C15.8167 13.0072 16.1365 13.0448 16.4523 13.0193C16.993 12.9758 17.3258 13.2444 17.5179 13.6852C18.1542 15.1422 18.7906 16.5999 19.3743 18.0777C19.47 18.3202 19.3886 18.7148 19.2403 18.9479C18.8569 19.5502 18.4112 20.1183 17.9492 20.6662C17.6238 21.0521 17.5753 21.383 17.8473 21.8258C19.6087 24.6957 22.0379 26.7912 25.2264 28.0245C25.7356 28.2214 26.007 28.1705 26.3487 27.7645C26.8976 27.1114 27.4471 26.4582 27.9693 25.785C28.257 25.4138 28.5974 25.2504 29.0287 25.4487C30.5891 26.1648 32.1441 26.8917 33.6868 27.6446C33.8446 27.7217 33.9875 27.9923 33.995 28.1779C34.0552 29.7562 33.5794 31.0739 32.1455 31.9889C30.3595 33.1291 28.486 33.2242 26.4936 32.6749C21.3838 31.2668 17.5931 28.1316 14.5467 23.9983C13.5392 22.6317 12.6234 21.2229 12.2331 19.5542C12.1155 19.0511 12.0759 18.5313 12 18.0188V18.0181Z" fill="#CA4654"/>
</svg>
